<svg xmlns="http://www.w3.org/2000/svg" xmlns:xlink="http://www.w3.org/1999/xlink" width="1200" height="1200" viewBox="0 0 1200 1200">
  <defs>
    <clipPath id="clip-Mail">
      <rect width="1200" height="1200"/>
    </clipPath>
  </defs>
  <g id="Mail" clip-path="url(#clip-Mail)">
    <rect width="1200" height="1200" fill="#fff"/>
    <g id="Grupo_249" data-name="Grupo 249" transform="translate(-597 -283)">
      <g id="MAIL-FOOTER" transform="translate(672 471)">
        <path id="Trazado_83" data-name="Trazado 83" d="M1402.334,262.682h-746.6c-83.551,0-151.524,67.973-151.524,151.524V935.728c0,83.551,67.974,151.551,151.524,151.551h746.6c83.552,0,151.552-68,151.552-151.551V414.205C1553.886,330.655,1485.886,262.682,1402.334,262.682Zm0,72.42a78.961,78.961,0,0,1,18.007,2.155l-314.979,357.4a101.766,101.766,0,0,1-152.628,0l-314.98-357.4a78.927,78.927,0,0,1,17.981-2.155Zm79.1,600.627a79.2,79.2,0,0,1-79.1,79.1h-746.6a79.2,79.2,0,0,1-79.1-79.1V414.205a78.973,78.973,0,0,1,5.939-29.967L898.377,742.553a174.21,174.21,0,0,0,261.343,0L1475.5,384.238a78.457,78.457,0,0,1,5.939,29.967Z" transform="translate(-504.211 -262.672)" fill="#1d93d1"/>
      </g>
    </g>
  </g>
</svg>
