<svg xmlns="http://www.w3.org/2000/svg" xmlns:xlink="http://www.w3.org/1999/xlink" width="1200" height="1200" viewBox="0 0 1200 1200">
  <defs>
    <clipPath id="clip-Ubicación">
      <rect width="1200" height="1200"/>
    </clipPath>
  </defs>
  <g id="Ubicación" clip-path="url(#clip-Ubicación)">
    <rect width="1200" height="1200" fill="#fff"/>
    <g id="Grupo_250" data-name="Grupo 250" transform="translate(-525 -291)">
      <g id="TAG-FOOTER" transform="translate(698 342)">
        <g id="Grupo_88" data-name="Grupo 88" transform="translate(0 -0.002)">
          <path id="Trazado_84" data-name="Trazado 84" d="M935.711,1466.751h0a38.1,38.1,0,0,1-28-12.208c-16.314-17.51-399.16-432.227-399.16-659.471,0-235.546,191.613-427.158,427.159-427.158,235.516,0,427.158,191.612,427.158,427.158,0,227.244-382.875,641.961-399.189,659.471A38.082,38.082,0,0,1,935.711,1466.751Zm0-1022.42c-193.418,0-350.77,157.352-350.77,350.741,0,150.825,231.787,442.745,350.77,576.615,118.953-133.869,350.74-425.79,350.74-576.615C1286.451,601.682,1129.1,444.331,935.711,444.331Z" transform="translate(-508.552 -367.914)" fill="#1d93d1"/>
        </g>
        <g id="Grupo_89" data-name="Grupo 89" transform="translate(234.846 216.199)">
          <path id="Trazado_85" data-name="Trazado 85" d="M708.926,759.958c-106.048,0-192.312-86.293-192.312-192.311,0-106.047,86.265-192.311,192.312-192.311S901.237,461.6,901.237,567.646C901.237,673.664,814.972,759.958,708.926,759.958Zm0-308.235A115.908,115.908,0,1,0,824.82,567.646,116.056,116.056,0,0,0,708.926,451.723Z" transform="translate(-516.613 -375.335)" fill="#1d93d1"/>
        </g>
      </g>
    </g>
  </g>
</svg>
