<svg xmlns="http://www.w3.org/2000/svg" xmlns:xlink="http://www.w3.org/1999/xlink" width="1200" height="1200" viewBox="0 0 1200 1200">
  <defs>
    <clipPath id="clip-Rocket">
      <rect width="1200" height="1200"/>
    </clipPath>
  </defs>
  <g id="Rocket" clip-path="url(#clip-Rocket)">
    <rect width="1200" height="1200" fill="#fff"/>
    <g id="Grupo_251" data-name="Grupo 251" transform="translate(-610 -340)">
      <g id="COHETE-FOOTER" transform="translate(690 419)">
        <g id="Grupo_90" data-name="Grupo 90">
          <path id="Trazado_86" data-name="Trazado 86" d="M1916.488-6h91.363c1.523.6,3,1.526,4.574,1.754,40.152,5.8,67.85,33.91,70.789,74.28,5.461,75.153-.959,149.614-16.594,223.2-18.307,86.171-49.277,167.251-98.824,240.641-42.152,62.44-92.594,117.372-149.592,166.373-6.17,5.3-9.6,10.729-10.154,19.49-2.648,42.254-7.248,84.4-9.24,126.673-1.715,36.55-16.723,63.362-47.842,82.956-42.908,27.019-84.537,56.063-127.057,83.713-12.887,8.383-26.9,15.031-40.4,22.475h-22.336a8.751,8.751,0,0,0-2.256-1.776c-23.678-7.993-37.453-24.023-40.967-49.114-3.559-25.453-7.766-50.819-11.734-76.215-2.5-15.931-5.072-31.847-7.68-48.186-2.719.191-4.367.163-5.959.439-28.932,5.008-53.287-4.012-73.729-24.464q-88.263-88.281-176.4-176.688c-12.6-12.619-20.924-27.546-22.67-45.344-1.043-10.617-.193-21.421-.193-32.939q-37.034-5.776-73.949-11.532c-18.014-2.8-36.111-5.147-54.037-8.434-24.969-4.579-38.75-21.328-46.127-44.49V496.47c2.967-6.75,5.063-14.075,9.047-20.158,35.258-53.8,70.537-107.582,106.5-160.906,13.605-20.182,33.711-30.826,58.047-32.791,47.877-3.861,95.738-7.812,143.648-11.158,7.7-.539,12-4.036,16.531-9.447,53.232-63.537,114.324-118.3,184.58-162.278,90.141-56.431,189.307-86.85,294.3-99.542C1877.545-2.157,1897.033-3.951,1916.488-6Zm107.105,137.638c0-15.587.4-31.186-.1-46.758-.736-23.238-6.137-29.481-29.074-29.263-37.494.358-75.072.915-112.432,3.822-72.264,5.621-142.357,22.231-208.475,51.964-152.84,68.722-262.314,183.2-341.1,329.321-3.109,5.765-1.713,8.794,2.387,12.9q145.781,145.81,291.244,291.941c4.709,4.734,8.084,4.876,13.8,1.988,53.445-27.005,102.141-60.872,146.92-100.571,62.508-55.416,117.408-117.342,157.252-191.175C1998.5,354.851,2021.344,245.638,2023.594,131.638ZM1303.314,510.716a43.924,43.924,0,0,0-2.375,5.861c-6.842,26.155-13.465,52.367-20.447,78.483-2.461,9.213-.055,16.545,6.477,23.085q87.6,87.7,175.084,175.51c6.6,6.638,13.959,9.1,23.006,6.772,25.5-6.552,51.027-13.005,76.508-19.629,3-.779,5.77-2.38,7.85-3.259Q1435.808,643.573,1303.314,510.716Zm440.76,246.933c-2.818,1.524-4.285,2.187-5.621,3.053-54.145,35.179-111.506,63.653-173.273,82.7-7.24,2.234-6.629,6.264-5.844,11.4q4.128,27.115,8.354,54.218c3.182,20.213,6.451,40.411,9.885,61.879,50.893-33.822,100.559-66.588,149.813-99.967,4.375-2.968,7.566-9.626,8.662-15.1,2.043-10.237,2.221-20.858,3.025-31.33C1740.76,802.692,1742.348,780.872,1744.074,757.649Zm-634-255.074c40.9,6.306,79.936,12.2,118.906,18.453,7.248,1.164,7.564-3.839,8.881-8.137C1256.2,453,1283.508,397.38,1317.43,344.9c1.7-2.632,3.236-5.371,5.836-9.708-34.492,2.754-66.83,4.817-99,8.379-5.906.655-12.684,6.292-16.408,11.524-14.1,19.818-27.121,40.413-40.531,60.724C1148.535,444.278,1129.756,472.742,1110.072,502.575Z" transform="translate(-1045.479 6)" fill="#fff"/>
          <path id="Trazado_87" data-name="Trazado 87" d="M1045.479,595.867c6.768-8.239,12.941-17.083,20.412-24.624q87.979-88.75,176.391-177.065c14.295-14.32,30.16-16.312,43.361-5.772,12.709,10.149,15.557,27.473,6.424,40.921a76.445,76.445,0,0,1-9.291,10.713Q1194.12,528.832,1105.238,617.4c-6.756,6.7-15.432,11.461-23.219,17.12h-12.184c-11.412-3.858-19.246-11.633-24.357-22.378Z" transform="translate(-1045.479 407.038)" fill="#fff"/>
          <path id="Trazado_88" data-name="Trazado 88" d="M1045.479,463.181c5.752-8.555,10.406-18.186,17.461-25.475,28.951-29.924,58.684-59.089,88.035-88.626,10.422-10.487,22.311-15.525,36.674-9.623,20.533,8.442,25.045,33.753,8.814,50.43-21.244,21.835-42.975,43.2-64.5,64.769-9.326,9.347-19.578,17.947-27.787,28.193-17.361,21.684-49.375,19.983-58.7-11.53Z" transform="translate(-1045.479 360.707)" fill="#fff"/>
          <path id="Trazado_89" data-name="Trazado 89" d="M1163.82,588.027c-1.887-.684-3.736-1.476-5.652-2.033-22.143-6.445-30.7-32.7-14.742-49.277,33.094-34.379,66.949-68.039,101.064-101.4,12.49-12.212,31.166-11.024,42.945.874a29.261,29.261,0,0,1-.035,41.368c-33.479,34.479-67.6,68.341-101.83,102.073-4.053,3.989-10.387,5.656-15.66,8.4Z" transform="translate(-952.666 453.528)" fill="#fff"/>
          <path id="Trazado_90" data-name="Trazado 90" d="M1320.781,232.3c.094-84.126,68.789-152.553,152.7-152.114,83.7.436,152.293,69.9,151.672,153.594-.621,83.544-69.32,151.7-152.645,151.444C1388.078,384.962,1320.676,317.028,1320.781,232.3Zm151.1,91.891c50.137.417,91.68-40.057,92.359-89.987.691-50.265-40.121-92.125-90.6-92.938-49.633-.8-91.594,40.322-91.977,90.131C1381.273,282.682,1421.219,323.772,1471.879,324.193Z" transform="translate(-760.74 95.141)" fill="#fff"/>
        </g>
      </g>
    </g>
  </g>
</svg>
