<svg xmlns="http://www.w3.org/2000/svg" xmlns:xlink="http://www.w3.org/1999/xlink" width="1200" height="1200" viewBox="0 0 1200 1200">
  <defs>
    <clipPath id="clip-Telefono">
      <rect width="1200" height="1200"/>
    </clipPath>
  </defs>
  <g id="Telefono" clip-path="url(#clip-Telefono)">
    <rect width="1200" height="1200" fill="#fff"/>
    <g id="Grupo_248" data-name="Grupo 248" transform="translate(-573 -462)">
      <g id="TELEFONO-FOOTER" transform="translate(634 523)">
        <path id="Trazado_82" data-name="Trazado 82" d="M1160.175,94.74c85.8,48.815,147.687,124.473,211.329,196.379,41.521,46.908,14.95,119.934-43.547,146.2-71.421,32.049-92.88,75.961-61.921,146.293,53.417,121.3,141.029,209.968,269.194,251.216,51.084,16.433,94.815-8.625,117.39-56.774,39.193-83.557,111.855-97.176,177.436-32.866,45.3,44.426,90.457,89,134.974,134.248,45.455,46.182,47.12,106.013,3.057,153.92-31.595,34.319-65.217,66.852-98.84,99.2-42.974,41.34-96.086,45.123-151.044,36.5-110.4-17.31-205.609-69.818-294.706-133.492-191.625-137-352.75-301.817-452.467-518.685-21.669-47.09-32.259-99.294-47.937-149.138V303.1c33.713-95.057,107.738-153.98,186.787-208.364Z" transform="translate(-923.092 -94.747)" fill="#1d93d1"/>
      </g>
    </g>
  </g>
</svg>
