<svg xmlns="http://www.w3.org/2000/svg" xmlns:xlink="http://www.w3.org/1999/xlink" width="1200" height="1200" viewBox="0 0 1200 1200">
  <defs>
    <clipPath id="clip-Mesa_de_trabajo_12">
      <rect width="1200" height="1200"/>
    </clipPath>
  </defs>
  <g id="Mesa_de_trabajo_12" data-name="Mesa de trabajo – 12" clip-path="url(#clip-Mesa_de_trabajo_12)">
    <rect width="1200" height="1200" fill="#fff"/>
    <g id="Grupo_164" data-name="Grupo 164" transform="translate(-321 -382)">
      <path id="Trazado_104" data-name="Trazado 104" d="M537,999.825V725.888c20.393-55.743,62.391-79.771,118.925-92.816,45.346-10.464,88.056-33.6,130.839-53.485C822.035,563.193,855.7,543.33,890.075,525H950.95c32.635,17.356,64.582,36.2,98.069,51.7,44.658,20.673,89.006,45.084,136.245,56.328,56.383,13.417,98.356,37.225,118.761,92.859v267.85c-1.163,1.619-3.166,3.147-3.36,4.876-16.053,140.956-94.984,244.657-201.758,328.591-53.467,42.022-114.628,74.255-172.307,110.92H914.425c-41.547-24.63-84.78-46.837-124.319-74.365-108.248-75.357-197.4-166.913-236.329-297.66C547.282,1044.276,542.546,1021.929,537,999.825Zm73.05-132.147c0,12.175.523,24.374-.085,36.513-4.182,83.794,7.53,163.766,54.69,235.7,61.113,93.218,145.966,159.377,242.557,211.632,8.17,4.42,24.216,2.155,32.69-3.2,41.906-26.481,84.945-52.073,123.047-83.485,83.113-68.508,152.644-149.442,163.212-261.336,8.072-85.475,4.882-172.185,2.843-258.25-.286-12.114-20.813-31.1-34.857-34.327-80.246-18.409-153.089-52.31-221.457-96.938-34.194-22.311-68.161-23.394-102.471-1.156C800.839,657.8,727.582,693.642,645.82,710.1c-25.823,5.2-36.811,21.5-36.032,48.036C610.86,794.622,610.056,831.165,610.05,867.678Z" transform="translate(0 0)" fill="#ea0934"/>
      <path id="Trazado_105" data-name="Trazado 105" d="M737.938,929.227C678.189,873.118,621.5,819.889,562.928,764.889L611.1,713.583,733.469,826.726C810.415,740.453,886.278,655.4,963.522,568.8c17.837,16.242,34.139,31.089,53.126,48.383C923.673,721.284,831.588,824.37,737.938,929.227Z" transform="translate(131.909 222.822)" fill="#ea0934"/>
    </g>
  </g>
</svg>
