<svg xmlns="http://www.w3.org/2000/svg" xmlns:xlink="http://www.w3.org/1999/xlink" width="1200" height="1200" viewBox="0 0 1200 1200">
  <defs>
    <clipPath id="clip-Mesa_de_trabajo_15">
      <rect width="1200" height="1200"/>
    </clipPath>
  </defs>
  <g id="Mesa_de_trabajo_15" data-name="Mesa de trabajo – 15" clip-path="url(#clip-Mesa_de_trabajo_15)">
    <rect width="1200" height="1200" fill="#fff"/>
    <path id="Trazado_146" data-name="Trazado 146" d="M2507.049-818.748c-20.707,0-40.73.073-60.748-.02-23.283-.1-36.78-13.491-36.828-36.641q-.11-63.363.007-126.727c.054-22.718,13.444-36.082,36.209-36.1q179.333-.08,358.661,0c22.73.007,36.314,13.4,36.334,35.97q.12,179.7.041,359.4c-.014,23.4-13.359,36.714-36.7,36.773q-63.234.16-126.462-.046c-22.338-.06-35.8-13.856-35.935-36.475-.06-9.865-.015-19.731-.015-29.6l-3.645-.912c-7.011,21.035-15.726,41.664-20.769,63.164-37.772,160.98,56.313,317.462,215.842,360.124,168.1,44.963,343.924-70.96,368.551-243.4,13.951-97.669-13.131-182.679-80.492-254.7-17.043-18.214-17.057-35.989.391-53.518q43.937-44.125,87.973-88.13c17-16.963,35.775-16.957,52.572.473,78.65,81.617,126.049,178.475,138.615,291.425,24.9,223.8-95.189,430.392-301.152,517.957-89.7,38.138-183.078,48.129-279.051,30.927-203.754-36.521-362.479-191.946-401.263-395.188-26.6-139.4,1.717-268,82.522-384.777,1.577-2.275,3.247-4.483,4.776-6.785C2506.811-816.041,2506.73-816.819,2507.049-818.748ZM2476.3-885.285H2487.9c31.1,0,62.206-.219,93.3.093,21.556.213,37.361,17.875,32.97,38.331-1.749,8.149-7.4,16.385-13.358,22.558-131.422,136.246-162.1,331.286-78.283,500.108,107.415,216.347,380.586,301.324,591.371,183.963,204.547-113.888,282.139-363.4,178.268-573.729a398.9,398.9,0,0,0-56.684-85.436c-15.771,15.806-31.072,31.133-46.811,46.906,1.223,1.663,2.986,4.151,4.842,6.572,62.617,81.677,88.018,173.672,74.586,275.792-28.432,216.2-241.465,359.645-451.752,304.657a365.48,365.48,0,0,1-261.558-448.686c16.506-62.173,47.5-116.2,92.535-162.07,11.74-11.961,26.27-15.52,39.581-9.959,14.235,5.954,21.081,17.137,21.108,34.646q.067,34.8.059,69.6c.006,9.559,0,19.125,0,28.552h65.685V-951.036H2476.3Z" transform="translate(-2306.654 1154.448)" fill="#ea0934"/>
  </g>
</svg>
