<svg xmlns="http://www.w3.org/2000/svg" xmlns:xlink="http://www.w3.org/1999/xlink" width="1200" height="1200" viewBox="0 0 1200 1200">
  <defs>
    <clipPath id="clip-Mesa_de_trabajo_13">
      <rect width="1200" height="1200"/>
    </clipPath>
  </defs>
  <g id="Mesa_de_trabajo_13" data-name="Mesa de trabajo – 13" clip-path="url(#clip-Mesa_de_trabajo_13)">
    <rect width="1200" height="1200" fill="#fff"/>
    <g id="Grupo_258" data-name="Grupo 258" transform="translate(-794.378 598.332)">
      <path id="Trazado_136" data-name="Trazado 136" d="M971.583,426.092V-40.045c34.122-93.9,109.446-109.07,199.624-96.987,0-61.827-1.393-117.99.292-174.059,3.4-113.114,80.122-196.057,195.964-214.159,98.736-15.423,203.207,46.418,235.723,144.407,11.208,33.767,12.957,71.308,14.947,107.357,2.438,43.98.583,88.2.583,134.571,19.125,0,33.148,1.052,46.973-.17,96.361-8.515,155.218,56.944,152.41,153.448q-5.106,176.142.071,352.539c2.131,75.537-20.405,132.6-91.55,165.125h-663.3C1017.027,510.342,985.236,476.085,971.583,426.092Zm421.829,22.338c96.4,0,192.8.2,289.206-.1,37.563-.121,50.952-13.078,51.052-50.583q.554-201.206-.036-402.412c-.127-37.193-14.059-50.484-51.777-50.533q-287.442-.383-574.878.014c-37.371.057-50.647,13.553-50.739,51.265q-.48,201.206.014,402.412c.107,37.406,13.22,49.751,51.486,49.851C1202.963,448.6,1298.188,448.43,1393.412,448.43Zm141.1-588.12c0-62.68,3.8-122.524-1-181.671-5.615-69.162-61.315-118.387-128.444-122.24-69.873-4.008-135.687,35.764-144.557,101.614-8.9,66.077-1.954,134.286-1.954,202.3Z" transform="translate(0 0)" fill="#ea0934"/>
      <path id="Trazado_137" data-name="Trazado 137" d="M1185.962-362.72a83.033,83.033,0,0,1-35.607,68.231v.071c-7.25,17.84-6.824,36.816-6.468,56.646.143,10.59.285,21.18-.142,31.77-1.066,26.084-13.788,43.142-40.725,43.426-26.866.284-40.37-16.062-41.365-42.5-.5-15.281-.782-30.633,0-45.842.853-15.636-.142-29.709-6.112-43.071a83.364,83.364,0,0,1-36.1-68.728,83.188,83.188,0,0,1,82.729-83.227h.5A83.263,83.263,0,0,1,1185.962-362.72Z" transform="translate(292.262 498.696)" fill="#ea0934"/>
    </g>
  </g>
</svg>
