<svg xmlns="http://www.w3.org/2000/svg" xmlns:xlink="http://www.w3.org/1999/xlink" width="1200" height="1200" viewBox="0 0 1200 1200">
  <defs>
    <clipPath id="clip-Mesa_de_trabajo_14">
      <rect width="1200" height="1200"/>
    </clipPath>
  </defs>
  <g id="Mesa_de_trabajo_14" data-name="Mesa de trabajo – 14" clip-path="url(#clip-Mesa_de_trabajo_14)">
    <rect width="1200" height="1200" fill="#fff"/>
    <g id="Grupo_263" data-name="Grupo 263" transform="translate(-1051.561 644.432)">
      <g id="Grupo_259" data-name="Grupo 259" transform="translate(1155.842 -540.142)">
        <path id="Trazado_138" data-name="Trazado 138" d="M1157.841-125.307c4.669-14.245,12.793-25.381,28.114-29.036,5.658-1.355,11.711-1.332,17.586-1.406,14.415-.188,28.83-.12,43.246-.028,3.444.023,5.482-.66,6.547-4.589a397,397,0,0,1,41.236-97.719c-13.391-13.021-27.038-26.035-40.382-39.358-10.407-10.39-13.9-23.177-9.36-37.092a45.669,45.669,0,0,1,10.573-17.233q44.262-44.971,89.292-89.179c16.158-15.929,38.031-15.9,54.467-.028,13.083,12.633,25.705,25.739,38.788,38.9,2.061-.99,3.968-1.776,5.75-2.784,28.056-15.873,57.411-28.682,88.655-36.778,6.325-1.64,7.97-4.555,7.782-10.777-.46-15.582-.25-31.193-.125-46.787.171-22.437,15.838-38.606,38.3-38.748q63.81-.4,127.626-.011c21.1.114,36.59,14.182,37.9,35.281,1.082,17.421.563,34.951.495,52.435-.017,4.207,1.145,6.228,5.472,7.362a367.092,367.092,0,0,1,89.976,37.256c5.175,2.972,7.971,2.306,11.9-1.844,10.566-11.142,21.612-21.834,32.565-32.6,17.148-16.852,38.918-17.159,56.01-.319q44.7,44.04,88.889,88.581c16.419,16.567,16.254,38.936-.176,55.589-12.6,12.77-25.637,25.107-38.538,37.689,3.968,7.481,7.447,13.874,10.783,20.348,12.252,23.769,22.357,48.421,29.064,74.325,1.686,6.519,4.606,8.392,11.2,8.221,16.522-.427,33.106-.586,49.6.313,20.228,1.1,35.053,16.22,35.27,36.408q.708,65.578.028,131.161c-.166,18.588-15.48,34.592-33.966,35.554-17.917.939-35.9.535-53.858.6-3.587.017-6.046.359-7.23,4.72a403.975,403.975,0,0,1-39.375,94.468,27.768,27.768,0,0,0-1.247,3.222c12.32,12.207,24.777,24.458,37.126,36.824,17.745,17.757,18.11,39.9.5,57.644q-43.7,44.032-87.9,87.568c-17.342,17.1-39.021,16.772-56.471-.433-12.28-12.115-24.453-24.339-36.682-36.505a6.506,6.506,0,0,0-1.1-.751c-14.421,7.026-28.489,14.808-43.263,20.843-17.216,7.031-35,12.713-52.663,18.577-4.253,1.406-6.058,3.052-5.944,7.749.33,13.225-.587,26.513.273,39.693,1.578,23.991-7.4,40.707-30.743,48.649H1570.574c-22.762-7.549-32.122-23.547-30.738-47.135.792-13.419-.062-26.923.256-40.382.125-5.05-1.367-7.344-6.428-8.887-13.744-4.179-27.55-8.426-40.781-13.96-18.418-7.7-36.34-16.607-54.854-25.176.2-.114-.285.034-.6.347q-18.053,18.028-36.095,36.067c-18.56,18.452-40.1,18.554-58.515.251q-43.212-42.973-86.338-86.042c-18.093-18.087-18.11-39.921-.034-57.98,12.514-12.5,25.2-24.828,37.644-37.063a25.519,25.519,0,0,0-1.082-2.8c-17.017-29.855-30.442-61.214-39.335-94.434-1.059-3.962-2.972-5.152-6.912-5.107-15.588.177-31.187.285-46.77-.045a59.863,59.863,0,0,1-17.365-2.5c-13.4-4.452-20.416-15.121-24.783-27.891Zm930.346,7.327h-8c-20.086,0-40.177.068-60.264-.028-11.717-.057-18.27-4.976-20.826-16.2a371.156,371.156,0,0,0-47.59-115.243c-6-9.593-4.907-17.41,3.091-25.545,9.611-9.775,19.346-19.426,29.081-29.081,6.5-6.445,13.095-12.8,18.981-18.543-30.88-30.8-61.055-60.9-91.707-91.479-15.07,15.235-30.647,31.062-46.326,46.787-9.7,9.73-17.12,10.356-29.036,3.211-9.3-5.579-18.6-11.216-28.25-16.175A362.019,362.019,0,0,0,1724.4-410.4c-13.418-3.171-17.74-8.83-17.779-22.4-.041-11.58-.012-23.166-.012-34.746v-31.8H1577.787c0,21.891,0,43.138-.006,64.391,0,16.488-3.7,21.674-19.528,25.4a366.838,366.838,0,0,0-109.925,45.8c-11.934,7.4-18.822,6.382-28.933-3.718q-21.316-21.3-42.568-42.659c-1.583-1.588-3.251-3.091-3.672-3.49-30.79,30.544-60.93,60.44-91.559,90.819,15.628,15.5,31.586,31.261,47.458,47.106,9.224,9.212,10.276,16.693,3.354,27.846a371,371,0,0,0-46.7,113.341c-2.7,11.757-8.95,16.459-21.237,16.51-20.085.08-40.177.023-60.263.023h-7.891V10.614h8.147q29.42,0,58.845.011c13.926.029,19.835,4.418,23.006,18.042a365.828,365.828,0,0,0,46.184,111.28c7,11.239,5.938,19.112-3.456,28.54-14.506,14.569-29.11,29.041-43.65,43.582-1.435,1.435-2.7,3.04-3.479,3.917,30.493,30.448,60.542,60.439,90.682,90.534,15.514-15.406,31.4-31.216,47.333-46.992,9.348-9.263,17.125-10.157,28.648-3.547,9.417,5.4,18.749,10.971,28.364,15.992,26.918,14.062,55.435,23.775,84.915,30.908,11.147,2.693,15.764,9,15.9,20.313.1,7.794.022,15.594.028,23.394v45.426h128.826c0-23.251-.04-45.916.018-68.575.034-11.83,4.68-17.655,16.288-20.672,6.166-1.6,12.383-2.989,18.521-4.691a365.351,365.351,0,0,0,96.079-42.62c9.7-6.046,17.41-4.982,25.6,2.915,4.589,4.429,9.046,9,13.556,13.516,11.8,11.842,23.593,23.69,34.177,34.319,30.789-30.641,61-60.707,91.075-90.631-14.273-14.415-29.023-29.406-43.872-44.288-12.6-12.639-13.584-18.48-4.447-33.437a372.752,372.752,0,0,0,45.25-110.165c2.881-12.3,8.87-17,21.526-17.051,20.085-.08,40.177-.023,60.268-.023h7.539Z" transform="translate(-1146.461 549.531)" fill="#ea0934"/>
        <path id="Trazado_139" data-name="Trazado 139" d="M1725.093,451.448H1578.11l-1.741-.581c-26.924-8.933-40.246-29.2-38.515-58.606.432-7.43.341-14.882.245-22.768-.068-5.152-.125-10.3-.046-15.451-12.576-3.826-26.649-8.176-40.183-13.84-13.123-5.488-26.161-11.654-38.771-17.615q-4.714-2.229-9.445-4.452l-9.223,9.217q-10.836,10.846-21.7,21.663c-23.062,22.938-51.648,23.035-74.558.245q-43.238-42.99-86.367-86.071c-11.062-11.05-16.909-23.86-16.914-37.034-.011-13.2,5.824-26,16.886-37.04,8.6-8.6,17.291-17.108,25.922-25.568l5.887-5.779a411.54,411.54,0,0,1-36.619-88.575c-14.278.154-29.149.216-43.843-.085-8.341-.182-14.923-1.156-20.712-3.08-15.189-5.044-25.643-16.5-31.962-35.013l-.609-1.788V-117.741l.563-1.725c6.575-20.086,18.787-32.389,36.283-36.562,6.547-1.565,13.168-1.639,19-1.708l1.088-.011c13.5-.176,27.094-.131,40.006-.051a405.8,405.8,0,0,1,36.887-88.872l-5.75-5.579c-9.485-9.166-19.015-18.384-28.4-27.749-13.629-13.6-17.939-30.891-12.144-48.677a57.535,57.535,0,0,1,13.283-21.686c26.1-26.525,54.518-54.906,89.417-89.31,20.542-20.228,49.469-20.285,70.363-.108,9.161,8.836,18.236,18.053,27.009,26.963q3.066,3.109,6.148,6.24c30.158-16.858,59.142-28.813,88.524-36.494-.4-13.857-.285-27.846-.165-41.385l.04-5.448c.228-28.808,21.093-49.862,49.617-50.043,40.308-.262,82.1-.257,127.762-.011,27.3.148,47.527,19.044,49.2,45.956.876,14.1.734,28.3.6,42.016q-.042,4.15-.074,8.278a381.961,381.961,0,0,1,88.53,36.915c8.887-9.337,18.167-18.435,27.151-27.242l4.862-4.771c21.651-21.27,50.585-21.389,71.979-.307,30.852,30.4,60.793,60.24,88.98,88.678,20.8,20.985,20.735,50.425-.153,71.6-8.785,8.9-17.888,17.7-26.685,26.212q-2.938,2.835-5.886,5.688c2.4,4.486,4.651,8.694,6.832,12.929,13.6,26.377,23.376,51.37,29.884,76.375,14.939-.37,32.617-.643,50.482.33,26.388,1.435,45.746,21.481,46.03,47.652.438,40.884.45,83.862.029,131.389-.223,24.544-20.3,45.546-44.761,46.827-13.573.712-27.293.677-40.513.626q-5.594-.017-11.193-.017a417.144,417.144,0,0,1-36.784,88.678l5.357,5.295c8.666,8.574,17.37,17.177,26.013,25.824,22.112,22.135,22.317,51.757.523,73.728-27.846,28.045-57.45,57.536-87.989,87.642-21.543,21.247-50.665,21.071-72.464-.427q-12.015-11.853-23.94-23.792l-7.879-7.857c-2,1.008-4.008,2.027-6.006,3.04-9.952,5.05-20.245,10.265-30.926,14.626-15.417,6.3-31.347,11.563-46.753,16.653l-4.714,1.56c.063,4.805-.006,9.445-.068,14.1-.108,7.777-.21,15.127.268,22.426,2.5,38.082-19.522,53.744-38.447,60.172Zm-143.214-22.773h139.359c16.226-6.086,22.625-17.1,21.35-36.516-.535-8.21-.421-16.357-.313-24.236.074-5.312.154-10.618.022-15.918-.233-9.405,4.389-15.748,13.738-18.845l6.649-2.2c15.042-4.97,30.59-10.111,45.284-16.112,9.827-4.008,19.254-8.79,29.235-13.852,4.435-2.249,8.882-4.5,13.356-6.684l5.9-2.875,5.443,3.661a13.234,13.234,0,0,1,2.79,2.152L1877.484,310q11.9,11.879,23.844,23.7c13.191,13,27.566,13.163,40.479.427,30.487-30.055,60.029-59.483,87.813-87.477,13.009-13.106,12.838-28.261-.467-41.583q-12.921-12.921-25.916-25.722L1986.823,163.1l2.972-7.931a20.546,20.546,0,0,1,1.673-3.871,394.829,394.829,0,0,0,38.248-91.752c2.34-8.671,8.454-13.089,18.167-13.134q7.054-.026,14.057.011c12.946.051,26.3.08,39.255-.592,12.451-.649,23.063-11.78,23.177-24.287.421-47.379.41-90.215-.028-130.945-.154-14.04-10.225-24.379-24.5-25.158-17.074-.928-34.188-.672-48.694-.3-11.961.325-19.55-5.329-22.517-16.744-6.075-23.456-15.28-47-28.153-71.968-2.192-4.247-4.447-8.466-6.86-12.986l-7.851-14.774,6.1-5.949q6.021-5.884,12.075-11.717c8.711-8.415,17.718-17.114,26.3-25.824,12.127-12.292,12.2-27.453.2-39.568-28.131-28.386-58-58.151-88.792-88.49-12.6-12.417-27.191-12.286-40.041.325l-4.878,4.782c-9.115,8.944-18.549,18.19-27.4,27.533-7.617,8.039-16.3,9.36-25.836,3.889a357.011,357.011,0,0,0-87.191-36.118c-6.411-1.68-14.035-6.24-13.983-18.418.017-3.774.057-7.543.091-11.312.131-13.322.268-27.1-.558-40.382-.922-14.86-11.363-24.515-26.6-24.595-45.563-.25-87.266-.25-127.489.011-16.021.108-26.866,11.13-26.992,27.447l-.04,5.465c-.12,13.453-.233,27.35.166,40.9.347,11.791-5.135,19.243-16.306,22.135-28.386,7.355-56.483,19.021-85.9,35.662-1.469.837-3.011,1.56-4.628,2.3l-9.093,4.344-5.71-5.744q-6.072-6.1-12.035-12.172c-9.075-9.217-17.644-17.928-26.593-26.559-12.047-11.631-26.821-11.637-38.566-.051-34.814,34.313-63.155,62.614-89.168,89.054a34.423,34.423,0,0,0-7.868,12.787c-3.137,9.6-.979,17.945,6.582,25.494,9.291,9.274,18.736,18.406,28.136,27.487l18.537,17.985-4.509,7.7A384.9,384.9,0,0,0,1273.709-148c-1.327,4.862-5.346,13-17.438,13h-.171c-13.823-.091-28.523-.165-43.029.028l-1.116.011c-5.1.063-9.912.108-13.971,1.082-9.24,2.209-15.264,8.358-19.368,19.852V25.37c3.911,10.555,9.2,16.459,16.982,19.05,3.558,1.179,8.011,1.788,14.011,1.913,15.6.336,31.513.222,46.395.04,9.456-.1,15.685,4.725,18.047,13.567a389.538,389.538,0,0,0,38.225,91.729,18.486,18.486,0,0,1,1.423,3.251l3.057,8.079-17.12,16.812c-8.58,8.409-17.21,16.869-25.762,25.415-6.684,6.673-10.213,13.9-10.208,20.911s3.541,14.262,10.242,20.951q43.1,43.075,86.321,86.025c14.006,13.908,28.284,13.823,42.455-.251q10.846-10.786,21.64-21.606l3.33-3.331-5.356-2.482,18.372-10.2a11.639,11.639,0,0,1,10.744-1.435l6.843,2.539.051.695q5.287,2.477,10.527,4.959c12.947,6.12,25.176,11.9,37.826,17.194,13.072,5.471,27.22,9.775,39.7,13.573,9.872,3,14.745,9.753,14.495,20.057-.125,5.448-.057,10.92.012,16.385.1,7.937.205,16.14-.285,24.39C1559.493,412.244,1565.875,422.828,1581.879,428.675Zm266.735-115.3.017.023Zm202.5-469.363h0ZM1539.994-443.634Zm187.387,856.424h-151.6l.017-63.969c.018-5.363.034-10.726-.04-16.095-.08-6.667-1.7-8.062-7.2-9.388-33.2-8.039-61.834-18.463-87.5-31.882-7.583-3.957-15.007-8.261-22.187-12.411l-6.576-3.8c-7.19-4.11-9.28-3.866-14.973,1.765-11.466,11.353-22.915,22.728-34.21,33.955l-21.156,21.014L1275.713,225.909l7.578-8.693c.917-1.088,2.124-2.5,3.433-3.809l17.78-17.735q12.938-12.9,25.859-25.83c5.75-5.779,6.006-7.805,1.851-14.484A379.052,379.052,0,0,1,1284.606,40.64c-1.924-8.272-3.154-9.223-11.938-9.24q-20.752-.043-41.51-.017l-36.853.006V-119.978l37.206.011q21.152.017,42.29-.034c7.605-.034,8.79-1.583,10.185-7.669a384.062,384.062,0,0,1,48.131-116.8c4.054-6.547,3.849-8.221-1.725-13.783-10.806-10.783-21.64-21.526-32.389-32.173l-23.188-22.995,107.54-106.675,8.01,7.589c1.127,1.036,2.539,2.346,3.894,3.7l15.975,16.021q13.288,13.322,26.593,26.633c6.746,6.741,7.9,6.428,14.882,2.106a379.936,379.936,0,0,1,113.318-47.208c10.14-2.385,10.743-2.534,10.749-14.319v-75.772h151.6l-.005,54.052q-.009,11.93.012,23.849c.028,8.369.865,9.428,9.018,11.352a375.284,375.284,0,0,1,85.535,31.074c9.309,4.794,18.287,10.18,26.98,15.389l1.914,1.145c7.891,4.742,9.524,4.122,15.115-1.48,11.062-11.1,22.073-22.249,32.9-33.2l21.441-21.686,107.972,107.705-13.709,13.368c-4.355,4.224-8.939,8.676-13.482,13.174l-.637.632c-9.479,9.411-18.964,18.816-28.33,28.341-4.651,4.731-4.5,6.815-1.554,11.529a383.984,383.984,0,0,1,49.037,118.755c1.269,5.562,2.783,7.3,9.774,7.333,14.182.068,28.375.045,42.569.04l37.029-.011V31.388l-36.153-.011c-14.346,0-28.66-.017-43,.04-7.429.023-8.808,1.11-10.481,8.255a385.836,385.836,0,0,1-46.623,113.5c-6.194,10.14-6.308,10.333,2.791,19.46,10.554,10.584,21.059,21.207,31.381,31.649l20.519,20.741L1920.195,331.69l-45.6-45.791c-3.308-3.336-6.621-6.678-10-9.94-4.805-4.646-6.8-4.475-11.661-1.446a378.753,378.753,0,0,1-99.062,43.929c-3.775,1.036-7.572,1.97-11.37,2.9-2.448.6-4.9,1.2-7.338,1.833-6.656,1.725-7.743,3.092-7.76,9.684-.04,16-.034,32.008-.023,48.216Zm-128.832-22.773H1704.6V381.09c-.011-16.231-.017-32.263.023-48.29.051-16.977,8.164-27.339,24.811-31.666,2.539-.66,5.089-1.281,7.64-1.907,3.576-.877,7.157-1.754,10.7-2.739a355.838,355.838,0,0,0,93.1-41.3c14.1-8.8,27.4-7.321,39.517,4.39,3.5,3.37,6.935,6.832,10.361,10.288l29.5,29.628,74.963-74.593-4.561-4.612c-10.288-10.413-20.769-21.014-31.3-31.575-16.459-16.5-17.939-28.016-6.1-47.413A363.216,363.216,0,0,0,1997.15,34.479c4.054-17.313,14.706-25.768,32.565-25.836,14.37-.057,28.734-.04,43.1-.04l13.362.011V-97.205l-14.233.011c-14.228.017-28.455.029-42.7-.04-17.143-.085-28.165-8.745-31.871-25.062a361.506,361.506,0,0,0-46.144-111.73c-8.711-13.948-7.111-27.624,4.623-39.568,9.434-9.587,18.987-19.061,28.534-28.535l.649-.643c3.616-3.581,7.248-7.128,10.783-10.555l-75.429-75.242-5.347,5.409c-10.846,10.982-21.885,22.158-32.975,33.277-13.236,13.282-26.49,14.808-42.95,4.936l-1.918-1.145c-8.375-5.027-17.034-10.219-25.693-14.671a352.333,352.333,0,0,0-80.338-29.161c-18.555-4.384-26.5-14.387-26.559-33.442q-.034-11.982-.012-23.935l.005-31.268H1598.549v53.01c-.006,22.01-7.413,31.557-28.307,36.477a357.276,357.276,0,0,0-106.532,44.39c-16.277,10.094-29.138,8.494-42.978-5.34Q1407.4-363.353,1394.1-376.71l-11.512-11.54-75.442,74.832,6.884,6.82c10.76,10.664,21.623,21.429,32.446,32.235,13.049,13.026,14.631,26.337,4.993,41.9a361.261,361.261,0,0,0-45.29,109.891c-3.843,16.744-14.706,25.272-32.287,25.346q-21.2.094-42.4.034l-14.421-.011V8.615l14.068-.006q20.777-.008,41.566.017c19.254.034,29.765,8.318,34.074,26.849a356.312,356.312,0,0,0,44.761,107.847c9.8,15.742,8.2,29.281-5.051,42.585q-12.929,12.989-25.921,25.9l-13.39,13.351,74.809,74.684,5.067-5.033c11.308-11.233,22.762-22.619,34.234-33.983,12.924-12.793,26.365-14.484,42.323-5.34l6.667,3.849c6.969,4.037,14.171,8.21,21.31,11.939,24.014,12.542,50.932,22.329,82.319,29.924,16.124,3.906,24.407,14.415,24.612,31.25.068,5.471.057,10.954.04,16.442Z" transform="translate(-1155.842 540.142)" fill="#ea0934"/>
      </g>
      <g id="Grupo_260" data-name="Grupo 260" transform="translate(1363.953 -331.527)">
        <path id="Trazado_140" data-name="Trazado 140" d="M1232.088-224.012c.678,58.1,19.243,111.309,59.165,155.483,53.772,59.506,121.772,86.987,201.74,79.9,113.99-10.1,203.238-99.774,214.79-213.9,4.48-44.214-3.262-86.566-22.449-126.743-5.306-11.108-3.883-20.131,3.934-26.166,10.168-7.851,23.718-5.084,28.734,7.5,8.347,20.974,17.809,42.028,22.193,63.964,20.114,100.634-7.327,187.792-80.514,259.265-44.841,43.781-99.912,67.864-162.617,73.733-62.341,5.835-120.446-7.191-173.222-40.8-70.175-44.687-113.483-108.405-125.827-190.747-14.159-94.428,13.339-176.667,82.319-242.931,59.575-57.229,132.027-81.408,214.522-75.071,38.743,2.978,74.889,14.466,108.963,32.873,8.294,4.481,11.961,11.039,11.084,19.568-.8,7.737-5.619,14.74-13.162,15.583a32.477,32.477,0,0,1-17.461-3.006c-26.548-13.567-54.239-23.638-83.936-26.439-92.828-8.768-168.367,23.166-224,98.567C1246.282-322.619,1232.607-275.94,1232.088-224.012Z" transform="translate(-1182.974 512.886)" fill="#ea0934"/>
        <path id="Trazado_141" data-name="Trazado 141" d="M1478.2,71.142c-54.507,0-105.194-14.723-151.053-43.924-74.229-47.265-118.294-114.1-130.967-198.655-14.825-98.9,14-183.966,85.689-252.832,61-58.595,136.1-84.9,223.29-78.214,38.822,2.989,77.007,14.5,113.495,34.205,12.326,6.667,18.361,17.586,17.006,30.749-1.423,13.778-10.971,24.362-23.217,25.739a43.946,43.946,0,0,1-23.929-4.19c-28.6-14.615-54.707-22.87-79.809-25.238-89.611-8.46-161.512,23.16-213.77,94-27.743,37.6-41.492,80.969-42.033,132.584.7,57.6,19.613,107.346,56.221,147.854,51.769,57.28,116.49,82.911,192.29,76.2C1608.9-.109,1694.9-85.776,1705.881-194.283c4.208-41.549-2.995-82.159-21.4-120.7-7.651-16.01-5.01-30.618,7.243-40.081,7.958-6.132,17.694-8.227,26.747-5.761,8.8,2.414,15.918,9,19.527,18.07,1.367,3.427,2.767,6.866,4.168,10.3,7.242,17.826,14.734,36.26,18.611,55.635,20.849,104.306-7.315,195.028-83.725,269.638-45.888,44.812-102.922,70.693-169.505,76.927Q1492.7,71.144,1478.2,71.142Zm1-551.864c-70.164,0-131.15,24.452-181.546,72.874-66.059,63.457-92.618,141.859-78.955,233.03,11.654,77.747,52.258,139.263,120.686,182.833,49.605,31.592,105.456,44.732,166.05,39.067,61.259-5.739,113.654-29.474,155.716-70.545,70.539-68.888,96.551-152.625,77.308-248.886-3.45-17.256-10.532-34.678-17.381-51.518q-2.126-5.235-4.23-10.464c-.677-1.7-1.981-3.866-4.383-4.526-2.084-.581-4.572.1-6.8,1.822-1.651,1.27-4.731,3.644-.621,12.24,20.228,42.369,28.142,87.044,23.507,132.8C1716.453-72.636,1621.774,21.61,1503.417,32.1c-83.349,7.378-154.383-20.752-211.191-83.617-40.468-44.778-61.362-99.609-62.1-162.981v-.251c.564-55.834,16.2-104.955,46.48-146,57.337-77.713,136.1-112.43,234.237-103.145,28.022,2.642,56.819,11.677,88.041,27.629a21.282,21.282,0,0,0,11.017,1.839c1.384-.154,2.813-2.653,3.1-5.448.284-2.778.108-5.517-5.175-8.375-33.664-18.184-68.8-28.791-104.419-31.535Q1491.126-480.716,1479.193-480.722Z" transform="translate(-1192.396 503.5)" fill="#ea0934"/>
      </g>
      <g id="Grupo_261" data-name="Grupo 261" transform="translate(1474.794 -195.16)">
        <path id="Trazado_142" data-name="Trazado 142" d="M1352.043-380.059c2.574-2.459,4.452-4.2,6.269-6q41.435-41.3,82.859-82.609c11.74-11.705,21.2-11.836,32.816-.3q31.2,30.983,62.255,62.1c11.267,11.29,11.153,20.872-.285,32.315q-83.717,83.751-167.473,167.473c-11.079,11.073-20.763,11.142-31.712.21q-57.72-57.61-115.379-115.277c-10-10-10.054-20.154-.051-30.231q31.725-31.956,63.6-63.759c10.516-10.493,21.008-10.561,31.489-.1C1328.292-404.4,1339.945-392.367,1352.043-380.059ZM1497.3-390.6c-12.986-12.986-26.445-26.445-40.211-40.206-1.452,1.378-3.331,3.091-5.13,4.89q-41.35,41.333-82.678,82.689c-12.223,12.218-21.213,12.172-33.305.114-11.649-11.62-23.422-23.126-34.279-33.835l-39.7,39.625c30.078,30.094,60.713,60.753,91.269,91.325C1401.045-293.971,1449.353-342.466,1497.3-390.6Z" transform="translate(-1202.47 488.995)" fill="#ea0934"/>
        <path id="Trazado_143" data-name="Trazado 143" d="M1361.872-177.923c-8.062,0-16.106-3.814-23.747-11.449q-57.721-57.6-115.385-115.277c-14.472-14.472-14.5-31.78-.08-46.3q31.734-31.982,63.633-63.8c14.939-14.894,32.725-14.916,47.584-.091,8.278,8.261,16.459,16.624,24.754,25.107l3.023,3.08,80.873-80.628c16.293-16.243,32.736-16.345,48.888-.307q31.2,31,62.278,62.13c15.724,15.753,15.622,32.491-.285,48.41q-83.733,83.751-167.479,167.473C1378.16-181.805,1370-177.923,1361.872-177.923ZM1310.148-403.2c-2.352,0-4.714,1.514-7.772,4.572q-31.844,31.777-63.553,63.719c-5.6,5.636-5.59,8.546.017,14.159q57.653,57.661,115.374,115.26c6.484,6.479,8.966,6.456,15.616-.2Q1453.589-289.4,1537.3-373.156c7.009-7.009,7.043-9.434.273-16.214q-31.042-31.1-62.216-62.068c-7.088-7.042-9.439-7.008-16.755.285l-82.859,82.6c-1.275,1.264-2.574,2.5-4.111,3.951l-10.453,9.969-18.822-19.186c-8.238-8.415-16.357-16.715-24.572-24.908C1314.8-401.707,1312.477-403.2,1310.148-403.2Zm52.508,182.776-107.38-107.46,55.771-55.652,18.577,18.31c7.76,7.635,15.8,15.537,23.781,23.5,7.68,7.646,9.44,7.663,17.222-.108l82.672-82.683c1.355-1.361,2.755-2.67,4.008-3.849l9.377-8.9,56.089,56.1ZM1287.489-327.86l75.146,75.191,127.972-128.462-24.242-24.242-79.637,79.649c-16.659,16.647-32.822,16.67-49.4.125-7.942-7.925-15.953-15.793-23.672-23.394l-2.511-2.465Z" transform="translate(-1211.865 479.547)" fill="#ea0934"/>
      </g>
      <g id="Grupo_262" data-name="Grupo 262" transform="translate(1807.465 -252.307)">
        <path id="Trazado_144" data-name="Trazado 144" d="M1309.96-468.8a18.947,18.947,0,0,1-19.038,18.839,18.779,18.779,0,0,1-18.623-18.48,18.745,18.745,0,0,1,18.634-19.146A18.839,18.839,0,0,1,1309.96-468.8Z" transform="translate(-1260.91 498.976)" fill="#ea0934"/>
        <path id="Trazado_145" data-name="Trazado 145" d="M1300.418-429.179h-.171a30.3,30.3,0,0,1-29.947-29.7,30.079,30.079,0,0,1,8.574-21.628,30.006,30.006,0,0,1,21.333-9.075,29.8,29.8,0,0,1,21.577,8.756,29.979,29.979,0,0,1,8.95,21.406h0a29.918,29.918,0,0,1-8.9,21.372A30.128,30.128,0,0,1,1300.418-429.179Zm.074-37.627h-.068a7.34,7.34,0,0,0-5.249,2.209,7.467,7.467,0,0,0-2.1,5.386,7.392,7.392,0,0,0,7.3,7.259,7.024,7.024,0,0,0,5.386-2.226,7.325,7.325,0,0,0,2.2-5.215h0a7.361,7.361,0,0,0-2.2-5.255A7.44,7.44,0,0,0,1300.492-466.806Z" transform="translate(-1270.297 489.585)" fill="#ea0934"/>
      </g>
    </g>
  </g>
</svg>
