<svg xmlns="http://www.w3.org/2000/svg" xmlns:xlink="http://www.w3.org/1999/xlink" width="1200" height="1200" viewBox="0 0 1200 1200">
  <defs>
    <clipPath id="clip-Mesa_de_trabajo_6">
      <rect width="1200" height="1200"/>
    </clipPath>
  </defs>
  <g id="Mesa_de_trabajo_6" data-name="Mesa de trabajo – 6" clip-path="url(#clip-Mesa_de_trabajo_6)">
    <rect width="1200" height="1200" fill="#fff"/>
    <path id="Trazado_116" data-name="Trazado 116" d="M1749.175-274.412c10.6-28.231,31.551-39.214,60.767-36.587,3.719.335,7.491.046,11.239.046,22.827,0,45.692-.783,68.464.326a107.021,107.021,0,0,1,34.432,7.252c34.346,13.918,68.073,29.362,102.257,43.695a66.077,66.077,0,0,0,21.6,4.612c12.906.71,25.884.313,38.827.085,15.16-.267,27.746,5.051,38.472,15.795,18.053,18.08,36.072,36.227,54.941,53.431a34.051,34.051,0,0,0,19.692,8.11c20.387,1.074,40.866.686,61.3.394,16.347-.233,29.605,5.54,40.839,17.457q54.68,58.008,109.846,115.558c9.662,10.127,14.286,21.939,14.237,35.993-.16,47.015.129,94.031-.137,141.046-.051,9.22,2.743,16.2,9.518,22.5q38.894,36.214,77.167,73.092c7.419,7.142,14.979,8.2,24.152,4.184,21.187-9.274,42.416-18.466,63.816-27.23,8.4-3.441,12.834-9.212,15.116-17.746,6.676-24.968,13.711-49.84,20.647-74.739,7.215-25.9,23.665-38.542,50.507-38.66,19.76-.086,39.522-.126,59.28.112,30.437.367,49.6,19.734,49.652,50.17.091,50.764-.12,101.527.108,152.29.074,16.842-6.128,30.244-18.83,41.164-30.225,25.981-60.259,52.179-90.364,78.3-12.535,10.874-13.239,13.617-7.58,29.122,11.023,30.207,7.519,44.44-16.333,66.275-7.79,7.13-15.507,14.344-23.4,21.354-17.605,15.628-36.569,17.878-57.479,6.771-15.025-7.981-29.608-16.9-45.064-23.91a33.372,33.372,0,0,0-21.1-1.765c-18.964,5.3-37.449,12.319-56.1,18.729-13.591,4.672-26.695,3.675-39.587-2.672Q2287.314,444.78,2154.516,379.5c-26.994-13.31-36.468-40.347-21.8-66.843,7.971-14.4,9.042-27.371,3.68-42.556-5.309-15.03-9-30.683-12.59-46.247-2.13-9.222-7.207-14.654-15.579-18.595-22.158-10.428-43.893-21.756-66.072-32.137-13.987-6.549-23.448-16.486-29.668-30.689-31.515-71.973-63.458-143.76-95.251-215.611-.825-1.867-1.539-3.79-2.473-5.6-4.692-9.085-13.72-12.718-22.1-8.955-8.334,3.744-11.636,12.9-7.239,22.639,7.835,17.362,16.214,34.478,24.352,51.7,1.308,2.768,2.738,5.5,3.779,8.368,3,8.291-.024,16.675-7.556,19.762-7.954,3.261-15.547,1.569-19.375-6.188-11.134-22.56-22.767-45.015-31.767-68.449-8.588-22.364,5-48.012,27.374-56.824a46.6,46.6,0,0,1,59.086,22.62c8.106,16.466,15.1,33.478,22.53,50.277,24.892,56.309,49.978,112.533,74.43,169.033,4.647,10.737,10.991,18.155,21.894,22.463,9.019,3.563,17.521,8.436,27.315,13.251V-224.095c-11.81,0-23.246-.354-34.652.088-14.955.58-28.757-2.542-42.475-8.749-33.154-15-66.654-29.245-100.213-43.325a53.959,53.959,0,0,0-19.655-4.024c-29.635-.421-59.278-.227-88.919-.165-16.069.033-21.7,5.562-21.713,21.34-.042,48.719-.125,97.439.152,146.157a35.916,35.916,0,0,0,3.689,15.545q76.131,149.649,152.917,298.963c2.9,5.633,8.472,10.636,13.981,13.993,6.84,4.169,14.659,3.308,20.7-2.735,6.092-6.1,6.008-13.223,2.421-20.716q-21.161-44.181-42.194-88.419c-6.148-12.9-12.4-25.75-18.37-38.733-4.515-9.825-1.748-18.775,6.565-22.533,8.182-3.7,16.3-.6,20.9,8.982,20.884,43.556,41.813,87.094,62.109,130.923,9.174,19.81,3.342,42.075-12.955,55.432-17.2,14.1-42.527,14.92-61.528.254a71.755,71.755,0,0,1-19.3-23.185Q1831.894,65.82,1755.824-83.863c-2.45-4.795-4.443-9.823-6.65-14.743Zm373.324,72.8-3.266,1.847a25.969,25.969,0,0,0-.511,3.676q-.044,182.921.236,365.843c.009,3.264,3.4,7.936,6.472,9.531,14.59,7.576,23.5,19.111,27.561,34.879,4.58,17.782,8.652,35.757,14.459,53.142,6.62,19.812,4.694,37.717-5.747,55.748-9.191,15.875-6.487,22.572,9.922,30.644q122.691,60.353,245.43,120.607c2.645,1.3,5.43,2.309,9.278,3.928V465.958c0-29.635-.057-59.271.028-88.907.039-13.19,5.26-19.878,15.22-20.027,10.144-.152,15.348,6.316,15.39,19.57.1,30.657.075,61.314.1,91.971,0,3.6,0,7.209,0,12.6,17.689-6.034,33.68-11.409,49.614-16.948,14.963-5.2,29.3-4.452,43.315,3.358,15.155,8.447,30.625,16.324,45.738,24.846,9.04,5.1,16.711,4.042,24.095-2.995,7.147-6.812,14.577-13.331,21.827-20.039,15.254-14.118,15.4-14.793,8.318-34.392-9.447-26.154-5.358-42.611,15.721-61.028q44.242-38.655,88.816-76.932c6.485-5.577,10.852-11.434,10.8-20.73-.305-50.412-.1-100.827-.17-151.241-.02-14.146-5.626-19.92-19.716-20.072-19.073-.207-38.15-.118-57.225-.038-14.6.061-18.612,3.058-22.531,16.972-7.1,25.2-14.246,50.4-21.026,75.686-4.56,17.016-14.654,28.614-30.975,35.379-21.675,8.985-42.932,19-64.754,27.6a76.517,76.517,0,0,1-25.708,4.875c-15.083.367-25.876-8.852-36.02-18.874-9.26-9.151-18.871-17.951-30.182-28.662v13.983c.006,25.888.177,51.777-.068,77.664-.091,9.759-6.175,16.129-14.569,16.537-8.549.416-15.247-6.4-16.025-16.371-.131-1.693-.033-3.4-.031-5.107.008-32.7-.541-65.418.311-98.1.33-12.578-2.385-22.011-12.686-29.872-14.012-10.694-18.807-25.8-18.687-43.23.318-45.643-.151-91.292.226-136.934.081-9.632-2.96-16.754-9.534-23.586q-52.775-54.861-104.93-110.323c-6.121-6.511-12.743-9.352-21.553-9.208-20.433.332-40.876-.015-61.313.13-15.485.109-28.614-5-39.25-16.41C2146.822-175.854,2134.637-188.709,2122.5-201.608Z" transform="translate(-1672.182 492.917)" fill="#fff"/>
  </g>
</svg>
