<svg xmlns="http://www.w3.org/2000/svg" xmlns:xlink="http://www.w3.org/1999/xlink" width="1200" height="1200" viewBox="0 0 1200 1200">
  <defs>
    <clipPath id="clip-Mesa_de_trabajo_7">
      <rect width="1200" height="1200"/>
    </clipPath>
  </defs>
  <g id="Mesa_de_trabajo_7" data-name="Mesa de trabajo – 7" clip-path="url(#clip-Mesa_de_trabajo_7)">
    <rect width="1200" height="1200" fill="#fff"/>
    <g id="Grupo_253" data-name="Grupo 253" transform="translate(-2760.252 618.979)">
      <path id="Trazado_117" data-name="Trazado 117" d="M3215.238,339.994c4.131-24.148,6.7-49.858,13.272-74.5,6.281-23.574,2.412-40.464-17.387-56.066-19-14.975-35.149-33.567-52.643-50.472-5.738-5.544-10.1-11.4-7.02-19.929,3-8.307,9.669-10.43,17.753-11.533,31.89-4.35,63.756-8.937,95.512-14.158,4.223-.695,9.374-4.7,11.368-8.582,14.714-28.608,28.809-57.535,42.923-86.447,3.531-7.23,7.805-12.993,16.765-12.932s13.129,6,16.638,13.169c13.86,28.306,28.164,56.4,41.658,84.878,3.268,6.9,7.544,9.582,14.718,10.557,31.567,4.285,63.059,9.127,94.614,13.513,7.821,1.087,13.816,4,16.5,11.849,2.774,8.108-1.189,13.852-6.662,19.169-23.109,22.452-46.026,45.1-69.353,67.322-4.9,4.672-6.113,9.091-4.926,15.578,5.78,31.656,11.1,63.395,16.635,95.1,1.328,7.614.546,14.567-6.262,19.4-6.788,4.819-13.431,3.2-20.323-.47-28.113-14.965-56.46-29.5-84.476-44.64-6.167-3.333-10.9-3.631-17.2-.221-28.589,15.464-57.413,30.5-86.279,45.441C3227.352,363.107,3214.677,355.613,3215.238,339.994ZM3335.555,58.425c-10.958,22.222-21.968,41.738-30.305,62.336-6.848,16.918-17.622,23.882-35.442,25.267-22.06,1.713-43.912,6.119-69.29,9.87,4.71,3.815,7.38,5.661,9.681,7.889,16.057,15.546,31.778,31.448,48.155,46.647,7.616,7.07,10,14.8,8.045,24.708-2.544,12.879-4.64,25.848-6.838,38.795-2.086,12.306-4.055,24.632-6.371,38.749,25.31-13.229,48.613-25.218,71.709-37.59,7.381-3.955,14.057-4.05,21.41-.09,20.229,10.892,40.62,21.483,60.969,32.152,3,1.574,6.121,2.923,10.759,5.121-3.665-21.551-7.031-41.228-10.357-60.911-6.014-35.592-7.567-27.511,16.589-51.967,14.24-14.416,27.8-29.5,41.56-44.181-23.609-3.507-48.465-7.748-73.475-10.669-11.615-1.356-18.139-6.789-22.909-17.01C3358.942,105.023,3347.616,82.887,3335.555,58.425Z" transform="translate(24.868 44.288)" fill="#fff"/>
      <path id="Trazado_118" data-name="Trazado 118" d="M3350.594-227.765c29.448,2.814,58.271,3.527,86.284,8.666,61.281,11.243,97.239,50.991,111.927,109.708,6.168,24.656,6.8,50.694,9.991,76.1q7.433,59.186,14.918,118.367c1.6,12.69-3.412,21.117-13.294,22.465-9.992,1.363-17.358-5.583-18.846-18.017-7.216-60.365-14.11-120.77-21.644-181.1-6.854-54.88-45.177-90.881-100.209-97.424-56.2-6.683-112.184-5.7-168.247.638-46.013,5.2-81.826,37.31-92.491,85.847-4.7,21.373-5.478,43.609-7.985,65.46-4.87,42.447-9.6,84.912-14.625,127.34-1.506,12.728-8.83,18.94-19.267,17.41-9.741-1.429-14.585-9.541-13.25-21.64,6.3-57.173,13.37-114.28,18.578-171.553,7.061-77.676,58.69-130.64,134.5-136.195C3288.389-224,3319.892-225.789,3350.594-227.765Z" transform="translate(20.234 21.207)" fill="#fff"/>
      <path id="Trazado_119" data-name="Trazado 119" d="M2947.829,333.212c3.532-20.6,6.9-42.7,11.259-64.589,2.027-10.161.827-17.465-7.651-24.826-15.621-13.56-29.872-28.691-44.792-43.067-5.56-5.356-9.207-11.177-6.456-19.227,2.708-7.921,8.85-10.6,16.621-11.652,23.112-3.132,46.216-6.381,69.215-10.225,3.411-.57,7.5-3.953,9.142-7.135,10.552-20.419,20.613-41.1,30.61-61.8,3.378-7,7.828-12.368,16.11-12.522,8.79-.164,13.365,5.484,16.906,12.813,9.569,19.812,19.656,39.376,29.066,59.261,2.969,6.27,6.555,9.294,13.828,10.15,22.83,2.688,45.65,5.83,68.218,10.137,5.414,1.033,12.465,6.451,13.976,11.334,1.527,4.928-1.175,13.319-5.005,17.378-16.01,16.969-33.022,33-49.945,49.089-4.276,4.065-5.556,7.811-4.408,13.78,4.4,22.9,8.67,45.86,11.657,68.97.709,5.484-2.144,13.822-6.284,16.864s-13,3.316-17.969.963c-20.762-9.822-40.949-20.894-61.1-31.949-5.789-3.175-10.339-3.5-16.326-.206q-30.64,16.856-61.9,32.577C2959.9,355.755,2947.715,348.244,2947.829,333.212Zm184.465-135.465c-13.749-2.011-27.211-4.741-40.8-5.762-14.547-1.092-24.329-6.551-29.842-20.922-5.067-13.206-12.441-25.525-19.438-39.518-7.445,15-14.783,27.889-20.329,41.511-5.02,12.33-13.444,17.4-26.141,18.582-14.457,1.345-28.8,3.961-43.348,6.047,12.141,12.555,23.31,24.514,34.96,35.983,6.465,6.364,8.7,13.054,6.843,22.14-3.233,15.811-5.4,31.842-8.312,49.641,16.18-8.4,30.591-15.418,44.513-23.294,8.374-4.739,15.695-4.65,24.006.022,13.943,7.834,28.3,14.93,44.418,23.348-2.831-16.741-4.873-31.593-7.965-46.222-2.4-11.357-.267-20.052,8.733-28.135C3110.967,220.949,3121.085,209.328,3132.293,197.747Z" transform="translate(0 51.495)" fill="#fff"/>
      <path id="Trazado_120" data-name="Trazado 120" d="M3715.865,333.4c-.106,15-12.259,22.191-25.046,15.711q-30.74-15.578-60.991-32.115c-5.824-3.187-10.33-3.431-16.307-.138-19.548,10.765-39.535,20.732-59.23,31.235-6.816,3.635-13.524,5.594-20.342.775-7.09-5.011-7.8-11.965-6.265-20.16,4.177-22.26,8.034-44.594,11.27-67.007.581-4.018-1.154-9.766-3.949-12.646-15.791-16.265-32.116-32.023-48.515-47.685-5.915-5.649-9.844-11.766-7.146-20.006,2.719-8.3,9.589-10.59,17.7-11.652,22.462-2.941,44.9-6.132,67.213-10.028,3.942-.688,8.631-4.506,10.547-8.154,10.224-19.462,19.772-39.284,29.346-59.081,3.59-7.42,7.6-14.087,17.01-14.2,9.908-.117,14,6.863,17.745,14.6,9.573,19.8,19.164,39.6,29.436,59.036a17.07,17.07,0,0,0,10.7,7.828c22.973,3.909,46.089,6.983,69.168,10.261,7.4,1.052,14.407,4.095,15.015,11.786.453,5.744-1.413,13.417-5.2,17.448-15.522,16.5-31.923,32.218-48.565,47.614-5.558,5.141-6.947,10.006-5.572,17.183,3.954,20.633,7.265,41.387,10.819,62.1C3715.191,329.017,3715.632,331.933,3715.865,333.4Zm-94.428-201.777c-6.955,13.976-14.129,26.164-19.19,39.173-5.512,14.161-14.911,20.177-29.689,21.171-13.744.926-27.354,3.789-39.844,5.627,10.571,11.4,20.26,23.067,31.268,33.322,8.736,8.139,11.354,16.7,8.908,28.144-3.139,14.675-5.19,29.583-8.054,46.425,16.013-8.319,30.377-15.327,44.27-23.165,8.687-4.9,16.389-4.733,25,.066,13.948,7.774,28.288,14.841,43.9,22.95-2.937-17.476-5.042-33.379-8.439-49-2.172-9.975.783-16.938,7.805-23.686,11.518-11.061,22.444-22.738,34.414-34.969-15.55-2.2-30.339-4.71-45.229-6.266-11.516-1.2-19.311-5.85-24.059-16.994C3636.5,160.364,3629.047,146.922,3621.437,131.626Z" transform="translate(57.343 51.503)" fill="#fff"/>
      <path id="Trazado_121" data-name="Trazado 121" d="M3440.362-342.183c-3.4,52.348-21.719,89.581-58.6,116.453-33.212,24.2-74.172,24.622-107.754.763-38.142-27.1-58.135-65-58.838-111.639-.848-56.272,44.051-101.6,102-105.1,50.388-3.037,93.132,19.137,111.732,60.013C3435.425-367.355,3437.851-351.154,3440.362-342.183Zm-33.265,6.262c-.6-5.068-.757-11.041-2.066-16.75-8.28-36.148-42.5-59.528-82.577-56.682-39.685,2.819-68.442,26.279-73.879,60.272-5.863,36.654,16.487,82.6,48.984,100.618,19.725,10.937,39.7,11.213,58.986-.4C3388.874-268.32,3404.853-297.7,3407.1-335.921Z" transform="translate(31.276 0)" fill="#fff"/>
      <path id="Trazado_122" data-name="Trazado 122" d="M3186.35,71.722c3.41-49.785,6.733-99.577,10.28-149.353,1.13-15.865,7.086-23.177,17.536-22.688,10.939.511,16.215,8.848,15.132,25.044q-4.934,73.7-10.2,147.384a77.325,77.325,0,0,1-1.074,8.8c-1.728,9.254-8.378,14.673-17.16,14.147-8.6-.515-14.578-7.092-14.9-16.45-.079-2.295-.011-4.595-.011-6.892Z" transform="translate(28.38 33.822)" fill="#fff"/>
      <path id="Trazado_123" data-name="Trazado 123" d="M3408.751-73.762c-.161-2.953-.456-5.906-.454-8.858.008-9.966,5.9-16.944,14.784-17.675,8.954-.735,16.565,6.145,17.372,16.261q2.982,37.327,5.593,74.684c1.977,27.521,3.761,55.056,5.8,82.571.565,7.623-.243,14.551-7.073,19.247-11.05,7.6-24.2.135-25.54-14.838-1.608-17.992-2.694-36.031-3.926-54.055Q3411.985-25.091,3408.751-73.762Z" transform="translate(50.397 33.822)" fill="#fff"/>
    </g>
  </g>
</svg>
