<svg xmlns="http://www.w3.org/2000/svg" xmlns:xlink="http://www.w3.org/1999/xlink" width="1200" height="1200" viewBox="0 0 1200 1200">
  <defs>
    <clipPath id="clip-Mesa_de_trabajo_8">
      <rect width="1200" height="1200"/>
    </clipPath>
  </defs>
  <g id="Mesa_de_trabajo_8" data-name="Mesa de trabajo – 8" clip-path="url(#clip-Mesa_de_trabajo_8)">
    <rect width="1200" height="1200" fill="#fff"/>
    <path id="Trazado_124" data-name="Trazado 124" d="M1803.568,1585.018c-10.828-4.963-14.323-13.375-14.206-25.176q.708-71.365.1-142.742c-.554-57.478,23.219-102.482,68.578-136.649,37.739-28.427,81.186-44.966,125.668-59.058,24.176-7.659,48.544-14.744,72.984-21.517,7.246-2.009,9.7-5.3,9.314-12.807-.67-13,.225-26.085-.445-39.085-.195-3.771-2.523-8.748-5.507-10.856-40.969-28.948-68.783-67.069-80.87-115.926-2.186-8.834-7.292-8.15-13.521-8.167-34.77-.1-61.457-17.227-71.429-47.072-6.967-20.849-5.654-42.307-1.614-63.686,1.434-7.587,3.207-15.351,2.964-22.974-1.613-50.354,6.793-98.472,29.523-143.848,50.7-101.213,160.2-161.568,272.823-150.057,128.209,13.105,228.85,110.455,246.218,238.442,1.529,11.263,1.587,22.726,2.375,34.091,1.882,27.136,7.824,54.747,4.688,81.287-4.069,34.425-2.637,68.751-5.225,103-2.122,28.094-25.726,48.585-54.112,49.014q-26.382.4-52.773-.057c-6.362-.117-10.442,2.076-15.041,6.684-13.272,13.3-27.724,25.425-41.283,38.458-3.057,2.939-5.97,7.6-6.2,11.626-.763,13.645.125,27.377-.469,41.039-.292,6.7,2.687,8.8,8.326,10.577,40.92,12.876,82.095,25.066,122.509,39.4,33.9,12.02,65.2,29.5,92.088,53.963,35.135,31.964,53.278,71.684,53.471,119.272.2,49.211-.209,98.423.231,147.631.1,11.765-3.374,20.223-14.2,25.2H2036.18c-12.036-8.6-15.6-16.036-12.287-25.624,3.392-9.806,10.276-13.478,25.3-13.484,11.682-.005,23.365,0,35.42,0,8.736-38.31,16.729-76.146,26.2-113.607,3.994-15.794,3.835-30.411-1.287-45.744-4.759-14.25-7.968-29.017-12.08-44.385-6.918,4.651-12.515,8.533-18.229,12.234-13.6,8.812-24.846,6.038-32.38-8.177-6.4-12.065-12.46-24.3-18.72-36.443-9.04-17.531-18.123-35.041-27.3-52.767-8.465,2.73-15.913,4.986-23.261,7.525-34.227,11.83-67.555,25.532-96.7,47.66-34.974,26.549-53.125,61.211-52.348,105.758.683,39.076.143,78.174.143,117.262v10.7c13.592,0,25.619-.272,37.626.074,12.71.367,20.75,9.613,19.685,21.686-.792,8.985-7.065,13.382-13.986,17.332ZM2011.76,920.172c0,16.328-.186,34.167.032,52,1.273,104.511,96.141,179.016,197.355,154.853,24.265-5.791,45.94-16.918,64.246-35.743h-10.113q-42.979,0-85.958-.008a66.6,66.6,0,0,1-8.778-.22,19.448,19.448,0,0,1-16.982-18.517,19.014,19.014,0,0,1,16.619-19.652,85.83,85.83,0,0,1,12.649-.692c39.4-.049,78.8-.268,118.191.173,7.764.086,12.154-2.315,14.717-9.383,3.54-9.764,8.258-19.178,10.968-29.151,9.029-33.228,4.828-67.318,5.369-101.081.035-2.181-2.557-5.132-4.708-6.506-15.344-9.807-30.717-19.589-46.41-28.822-25.151-14.8-50.9-16.324-78.56-5.671-35.129,13.529-70.568,26.817-106.846,36.6C2067.8,915.292,2040.433,916.26,2011.76,920.172Zm232.915,422.109c-9.069,35.858-25.279,69.775-9.361,106.828,2.4,5.581,2.829,12,4.209,18.026,5.994,26.179,12,52.353,17.892,78.022h255.7c0-48.3.765-95.875-.314-143.4-.562-24.68-10.36-46.958-26.649-65.751-38.3-44.19-91.439-61.1-144.352-79.042-1.363,2.2-2.29,3.488-3.011,4.885-14.615,28.324-29.02,56.759-43.885,84.952-7.29,13.826-18.608,16.307-31.752,7.774C2257.218,1350.724,2251.374,1346.744,2244.676,1342.281ZM2012.022,877.8c27.043,1.207,52.492-.163,76.776-8.043,35.219-11.427,69.928-24.439,104.792-36.951,21.355-7.663,43.021-9.6,65.268-4.792,22.7,4.9,42.152,16.736,61.592,28.635,2.8,1.713,5.665,3.309,9.135,5.328,1.789-56.306-31.851-113.189-83.7-139.723-57.81-29.584-114.843-26.158-167.763,11.514C2029.507,768.377,2009.409,817.552,2012.022,877.8Zm-77.605-23.123c7.6-1.372,13.3-2.572,19.057-3.391,6.317-.9,14.863.761,18.424-2.759,3.694-3.65,2.625-12.161,3.564-18.558,15.56-106.142,123.438-182.225,228.948-163.187,85.708,15.467,155.692,86.461,164.3,177.324.224,2.367,3.623,5.988,5.94,6.332,10.49,1.551,21.124,2.134,32.913,3.172C2403.2,772.6,2369.327,706.845,2300.8,662.519c-81.576-52.77-167.257-54.7-250.9-5.375C1976.16,700.639,1939.574,768.385,1934.417,854.681Zm282.821,690.763c-8.581-37.7-16.962-74.791-25.62-111.814-.431-1.849-3.216-4.417-4.981-4.478-11.594-.4-23.208-.208-35.217-.208-8.956,39.328-17.679,77.632-26.532,116.5ZM2104.93,1159.706c0,13.274-.345,24.662.239,36,.15,2.891,2.609,6.554,5.1,8.292,18.413,12.842,36.992,25.457,55.844,37.642,2.394,1.549,7.529,1.522,9.934-.033,18.849-12.186,37.387-24.856,55.881-37.583,2.176-1.5,4.882-4.187,4.972-6.42.488-12.179.231-24.387.231-38.057C2192.6,1174.494,2149.463,1174.193,2104.93,1159.706Zm66.338,230.091c4.555,0,9.277.733,13.607-.254,2.957-.674,7.015-3.267,7.763-5.826,5.744-19.646,10.976-39.45,15.839-59.334.613-2.506-.97-6.934-3.028-8.471a312.186,312.186,0,0,0-29.132-19.549c-2.747-1.6-8.082-1.424-10.9.22a282.981,282.981,0,0,0-28.3,19.032c-2.243,1.7-3.963,6.435-3.336,9.183,3.464,15.2,7.726,30.214,11.724,45.289C2150.735,1389.8,2150.738,1389.8,2171.269,1389.8ZM2039.1,1245.719l33.894,65.7,63-42.566c-17.387-11.768-33.675-22.955-50.2-33.771-2.028-1.326-5.569-1.481-8.033-.8C2065.267,1237.7,2052.9,1241.58,2039.1,1245.719Zm230.183,65.734c11.553-22.583,22.429-43.842,33.6-65.685-13.954-4.253-26.9-8.28-39.922-12.071a7.429,7.429,0,0,0-5.5.528c-16.97,11.288-33.805,22.777-51.353,34.674Zm-297.252-420.17c-25.161-5.176-42.715,8.471-43.023,32.882q-.1,7.8,0,15.6c.328,24.2,18.874,38.437,43.022,32.614Zm398.02,81.886c28.853,2.989,43.039-9.766,43.063-37.47,0-3.9.048-7.8-.008-11.7-.347-24.335-18.461-38.262-43.055-32.6Zm37.448,36.92c-12.472,1.047-24.037,1.877-35.561,3.095-2.515.265-6.479,1.362-7.058,3.024-4,11.476-7.27,23.2-11.038,35.725,13.748,0,26.7.556,39.572-.188,9.141-.528,13.6-7.081,14-15.875C2407.806,1027.14,2407.5,1018.379,2407.5,1010.088Z" transform="translate(-1570.743 -483.681)" fill="#fff"/>
  </g>
</svg>
