<svg xmlns="http://www.w3.org/2000/svg" xmlns:xlink="http://www.w3.org/1999/xlink" width="1200" height="1200" viewBox="0 0 1200 1200">
  <defs>
    <clipPath id="clip-Mesa_de_trabajo_9">
      <rect width="1200" height="1200"/>
    </clipPath>
  </defs>
  <g id="Mesa_de_trabajo_9" data-name="Mesa de trabajo – 9" clip-path="url(#clip-Mesa_de_trabajo_9)">
    <rect width="1200" height="1200" fill="#fff"/>
    <g id="Grupo_254" data-name="Grupo 254" transform="translate(-2742.924 -429.98)">
      <path id="Trazado_125" data-name="Trazado 125" d="M3016.19,589.98H3347.9c9.969,6.63,7.027,17.56,8.3,27.5h9.987q97.1,0,194.205.031c18.485.021,29.444,11.012,29.59,29.3.06,7.734.13,15.471-.031,23.2-.361,17.351-11.406,28.226-28.781,28.288-22.915.081-45.829.02-68.744.02h-25.793V727.58c3.752,0,6.857,0,9.965,0q103.116.013,206.235.043c20.6.016,31.021,10.605,31.068,31.332.023,10.885.182,21.774-.074,32.652-.111,4.731.991,7.461,5.73,9.882,14.189,7.249,21.6,19.581,21.755,35.4q.529,55.421.034,110.85c-.137,15.115-7.154,27.183-20.551,34.379-5.74,3.083-7.042,6.56-7.028,12.627q.321,145.656.187,291.31.01,69.6-.008,139.21c-.015,20.223-10.552,30.868-30.5,30.957-3.4.015-6.8,0-9.984,0-4.361,12.121-6.61,13.692-19.062,13.723-4.868.012-9.766-.334-14.6.07-10.8.9-19.343-1.46-21.328-13.519H3067.13c-3.86,11.446-6.646,13.412-18.8,13.448-5.156.015-10.339-.332-15.461.072-10.626.838-18.771-1.815-20.683-13.818-2.067,0-3.5-.135-4.906.021-22.67,2.512-36.177-10.105-36.05-36.09.695-141.5.3-283,.479-424.5.008-6.587-1.075-10.563-7.662-14.008-12.826-6.709-19.688-18.484-19.838-32.94q-.587-56.279-.018-112.568c.145-15.175,7.506-27.052,20.879-34.172,5.174-2.755,6.6-5.608,6.575-11.106q-.294-72.612-.059-145.225c.056-21.529,9.395-38.041,28.157-48.748C3004.87,593.94,3010.69,592.241,3016.19,589.98ZM3687.9,1346.447c-3.29-.148-5.814-.361-8.337-.361q-163.676-.01-327.351.015-133.6,0-267.207-.048c-10.669,0-16.87-4.827-16.957-12.88-.088-8.1,6.019-12.8,16.747-12.878,2.576-.019,5.154,0,7.732,0l584.246-.052h10.667v-194H2997.937v194.057c8.528,0,16.5-.043,24.467.011,10.4.068,16.016,4.389,16.229,12.376.225,8.386-5.667,13.314-16.248,13.426-8.17.086-16.344.017-24.578.017v83.819H3150.6c0-3.805-.021-7.171,0-10.537.2-27.353,16.731-44.024,43.85-44.032q148.208-.046,296.419,0c27.211.007,43.771,16.588,44,43.888.029,3.568,0,7.137,0,10.426H3687.9ZM3219.5,822.676c-3.111-.171-4.787-.344-6.464-.344q-112.542-.022-225.085-.013c-1.146,0-2.3-.043-3.434.067-8.818.853-14.527,6.181-14.573,14.991q-.286,54.98.074,109.963c.063,8.59,5.42,13.533,14.057,14.374,3.408.332,6.863.244,10.3.244q348.366.014,696.73.005c2.862,0,5.735.087,8.588-.089,10.462-.647,15.851-5.882,15.893-16.276q.215-53.263.01-106.528c-.04-10.825-5.616-16.317-16.474-16.637-8.3-.243-16.612.062-24.91-.2-8.232-.264-13.4-5.215-13.55-12.44-.146-7.275,4.879-12.551,12.975-13.144,4.49-.328,9.026-.058,13.917-.058V753.869h-331.24v15.068c24.669,0,48.676.015,72.685,0,25.078-.02,30.459,3.792,38.075,27.6h9.134q67.869,0,135.738.038a37.056,37.056,0,0,1,10.166.964c6.285,1.827,9.458,6.678,8.883,13.022-.565,6.264-4.306,10.555-10.88,11.472a62.581,62.581,0,0,1-8.576.273q-67.438.021-134.879.01h-10.616c0,25.259-.042,49.283.011,73.307.063,28.546-8.366,37.068-36.535,37.036q-65.725-.077-131.444-.021c-17.18-.009-34.37.189-51.543-.226-15.666-.38-26.035-10.882-26.949-26.552-.234-4-.077-8.016-.077-12.026C3219.5,870.39,3219.5,846.946,3219.5,822.676Zm-222.143-26.548h221.22c6.856-22.641,13.009-27.187,36.374-27.189q32.634,0,65.27,0h9.182V616.358a52.558,52.558,0,0,0-5.351-.57q-149.008-.036-298.011.053c-16.583.024-28.319,12.228-28.634,29.029-.222,12.019-.05,24.046-.05,36.07C2997.36,718.986,2997.362,757.033,2997.362,796.128Zm441.981,110.263V795.247h-193.4V906.391ZM3218.3,1043.453c-1.939,10.863,3.68,26.037-12.922,26.313-17.577.291-11.917-15.836-14.033-26h-55.606v55.307h414.029v-55.519h-55.606c-1.96,10.5,3.338,26.024-13.5,26.244-17.968.233-10.877-16.46-13.806-26.029h-110.6c-2.051,10.319,3.47,25.019-12.325,25.929-18.57,1.071-12.515-15.718-14.9-26.244Zm-82.8-27.021h414.272V988.366H3135.5Zm428.129-343.894v-28.8H3356.3V726.88h83.9c0-7.56-.008-14.4,0-21.236.033-23.675,9.529-33.1,33.4-33.1C3503.35,672.531,3533.1,672.538,3563.628,672.538ZM3176.4,1429.916h332.677c0-4.7.209-8.943-.042-13.157-.612-10.238-6.136-15.571-16.589-15.578q-149.826-.091-299.65.008c-10.4.006-15.8,5.425-16.36,15.8C3176.222,1420.964,3176.4,1424.964,3176.4,1429.916ZM3053.853,1099.4V988.3h-55.969v111.1Zm633.658-.109V988.5h-55.8v110.79ZM3080.658,988.351v110.921H3108.6V988.351Zm524.283,110.854V988.491h-28.312v110.715Z" fill="#fff"/>
      <path id="Trazado_126" data-name="Trazado 126" d="M3547.538,861.558c-3.136,0-6.323.36-9.4-.074-6.435-.91-10.258-4.843-10.793-11.342-.568-6.9,2.686-12,9.434-13.255a68.5,68.5,0,0,1,17.858-.572,12.777,12.777,0,0,1,11.929,13.256c-.341,6.771-5.443,11.562-13.042,12.136-1.985.15-3.992.022-5.989.022Z" transform="translate(37.034 15.618)" fill="#fff"/>
      <path id="Trazado_127" data-name="Trazado 127" d="M3610.99,861.657a59.279,59.279,0,0,1-7.706-.054c-6.894-.908-10.814-5.067-11.213-11.934-.4-6.955,3.215-11.826,9.963-12.928a66.986,66.986,0,0,1,17.913-.345c7.151.787,11.475,5.577,11.311,12.805-.162,7.129-4.339,11.648-11.7,12.446a79.9,79.9,0,0,1-8.569.05Z" transform="translate(41.146 15.616)" fill="#fff"/>
      <path id="Trazado_128" data-name="Trazado 128" d="M3611.428,887.879c13.579-.008,20.124,4.331,19.926,13.206-.194,8.543-6.464,12.565-19.6,12.573-13.89.009-19.94-4.006-19.765-13.115C3592.159,891.712,3598.032,887.886,3611.428,887.879Z" transform="translate(41.141 18.912)" fill="#fff"/>
      <path id="Trazado_129" data-name="Trazado 129" d="M3157.652,861.677c-13.089.036-19.335-4.162-19.252-12.784.081-8.6,6.521-12.877,19.471-12.844,3.131.009,6.357-.189,9.373.47,7.057,1.541,10.942,6.091,10.417,13.474-.491,6.926-4.579,10.875-11.456,11.632A78.589,78.589,0,0,1,3157.652,861.677Z" transform="translate(12.346 15.62)" fill="#fff"/>
      <path id="Trazado_130" data-name="Trazado 130" d="M3482.029,861.836c-2,0-4,.093-6-.016-8.424-.459-13.374-5-13.556-12.354-.183-7.381,4.638-12.637,12.714-13.349a88.682,88.682,0,0,1,12.847-.068c8.4.483,14.018,6.078,13.752,13.367-.259,7.09-5.544,11.863-13.761,12.339-1.992.115-4,.017-6,.017Z" transform="translate(32.92 15.609)" fill="#fff"/>
      <path id="Trazado_131" data-name="Trazado 131" d="M3157.852,913.4c-13.083.245-19.419-3.884-19.508-12.453-.091-8.842,6.565-13.219,20.065-13.118a46.01,46.01,0,0,1,8.53.453c7.118,1.412,11.061,5.837,10.683,13.24-.354,6.949-4.338,10.984-11.223,11.823A71.317,71.317,0,0,1,3157.852,913.4Z" transform="translate(12.343 18.909)" fill="#fff"/>
      <path id="Trazado_132" data-name="Trazado 132" d="M3547.889,887.681c2.835.251,5.744.173,8.486.818,6.717,1.579,10.49,6.2,10.111,12.948-.374,6.636-4.25,11.279-11.256,11.924a95.632,95.632,0,0,1-15.393.111c-7.863-.553-12.455-5.329-12.573-12.391-.116-7.086,4.422-12.12,12.049-13.005a74.8,74.8,0,0,1,8.558-.052Z" transform="translate(37.033 18.899)" fill="#fff"/>
      <path id="Trazado_133" data-name="Trazado 133" d="M3481.6,913.78a74.854,74.854,0,0,1-8.524-.523c-6.419-1.1-10.131-5.052-10.5-11.588-.395-6.91,2.911-11.962,9.705-13.029a70.252,70.252,0,0,1,18.7-.233c6.82.781,10.745,5.7,10.656,12.413-.092,7.05-4.073,11.746-11.484,12.549a79.755,79.755,0,0,1-8.541.05Z" transform="translate(32.924 18.913)" fill="#fff"/>
    </g>
  </g>
</svg>
