<?xml version="1.0" encoding="utf-8"?>
<!-- Generator: Adobe Illustrator 25.1.0, SVG Export Plug-In . SVG Version: 6.00 Build 0)  -->
<svg version="1.1" xmlns="http://www.w3.org/2000/svg" xmlns:xlink="http://www.w3.org/1999/xlink" x="0px" y="0px"
	 viewBox="0 0 1200 1200" style="enable-background:new 0 0 1200 1200;" xml:space="preserve">
<style type="text/css">
	.st0{display:none;opacity:0.05;fill:url(#);}
	.st1{display:none;opacity:0.16;fill:url(#);}
	.st2{display:none;opacity:0.1;fill:url(#);}
	.st3{display:none;opacity:0.13;fill:url(#);}
	.st4{display:none;opacity:0.27;fill:url(#);}
	.st5{fill:#1D93D1;}
</style>
<g id="Home_Screen">
	<g id="Footer">
		<g id="Legal">
		</g>
	</g>
	<g id="Services_1_">
		<g id="Background_1_">
			<g id="Patterns">
			</g>
		</g>
		<g id="_x5B_YOUR_TEXT_HERE_x5D_">
		</g>
	</g>
	<g id="Products">
		<g id="_x5B_YOUR_HEADLINE_HERE_x5D_">
		</g>
	</g>
	<g id="Marquee">
		<g id="Background">
			<g id="Patterns_1_">
			</g>
		</g>
		<g id="_x5B_YOUR_COPY_HERE_x5D_">
		</g>
	</g>
	<g id="Header">
	</g>
</g>
<g id="Capa_15">
	<g>
		<path class="st5" d="M329.69,395.9c-6.62,0-13.24-2.1-19.02-6.3l-35.95-26.12c-1.18-0.85-2.77-0.85-3.94,0l-35.95,26.12
			c-11.54,8.4-26.5,8.4-38.03,0c-11.56-8.39-16.17-22.59-11.77-36.17l13.75-42.27c0.44-1.39-0.04-2.89-1.21-3.74l-35.95-26.12
			c-11.56-8.39-16.17-22.59-11.76-36.18c4.41-13.58,16.49-22.36,30.78-22.36h44.44c1.45,0,2.73-0.93,3.18-2.32l13.74-42.25
			c4.41-13.58,16.48-22.36,30.77-22.36c14.28,0,26.36,8.78,30.77,22.36l13.74,42.26c0.45,1.38,1.73,2.31,3.18,2.31h44.45
			c14.28,0,26.36,8.78,30.77,22.35c4.42,13.58-0.19,27.79-11.74,36.19l-35.97,26.12c-1.17,0.85-1.65,2.36-1.21,3.74l13.74,42.26
			c4.41,13.59-0.2,27.79-11.76,36.18C342.94,393.8,336.31,395.9,329.69,395.9z M272.76,333.81c6.66,0,13.33,2.07,19.02,6.2
			l35.95,26.12c0.5,0.36,1.97,1.43,3.94,0c1.97-1.44,1.41-3.18,1.21-3.75l-13.72-42.25c-4.35-13.38,0.37-27.92,11.75-36.18
			l35.96-26.12c0.48-0.35,1.96-1.43,1.21-3.75c-0.76-2.31-2.58-2.31-3.18-2.31h-44.45c-14.05,0-26.43-8.99-30.77-22.35l-13.74-42.26
			c-0.19-0.58-0.76-2.31-3.18-2.31c-2.42,0-2.99,1.73-3.17,2.31l-13.75,42.27c-4.34,13.37-16.72,22.36-30.77,22.36h-44.44
			c-0.6,0-2.44,0-3.18,2.31c-0.76,2.31,0.73,3.39,1.21,3.75l35.95,26.12c11.38,8.26,16.11,22.8,11.75,36.18l-13.74,42.26
			c-0.18,0.57-0.75,2.31,1.23,3.75c1.97,1.42,3.44,0.35,3.94,0l35.95-26.12C259.43,335.88,266.09,333.81,272.76,333.81z"/>
		<path class="st5" d="M656.94,395.9c-6.63,0-13.25-2.1-19.03-6.3l-35.95-26.12c-1.18-0.85-2.75-0.86-3.96,0.01l-35.94,26.12
			c-11.55,8.4-26.5,8.4-38.05-0.01c-11.55-8.39-16.16-22.6-11.74-36.18l13.72-42.25c0.44-1.39-0.04-2.89-1.21-3.74l-35.95-26.12
			c-11.56-8.39-16.17-22.59-11.76-36.17c4.42-13.59,16.5-22.37,30.78-22.37h44.44c1.45,0,2.73-0.93,3.18-2.32l13.74-42.25
			c4.41-13.59,16.49-22.36,30.77-22.36c14.29,0,26.37,8.77,30.78,22.35c0,0.01,13.73,42.27,13.73,42.27
			c0.45,1.38,1.73,2.31,3.2,2.31h44.44c14.28,0,26.36,8.78,30.78,22.37c4.41,13.58-0.2,27.78-11.76,36.17l-35.95,26.12
			c-1.18,0.86-1.67,2.36-1.22,3.74l13.74,42.26c4.42,13.58-0.19,27.78-11.75,36.18C670.18,393.8,663.56,395.9,656.94,395.9z
			 M507.87,251.77c-0.6,0-2.44,0-3.18,2.32c-0.75,2.31,0.73,3.38,1.21,3.74l35.95,26.12c11.38,8.26,16.1,22.8,11.75,36.18
			l-13.72,42.26c-0.18,0.58-0.75,2.32,1.21,3.75c1.98,1.42,3.45,0.35,3.94,0l35.95-26.12c11.38-8.26,26.68-8.26,38.03,0l35.96,26.12
			c0.5,0.36,1.98,1.43,3.93,0c1.97-1.44,1.4-3.17,1.22-3.74l-13.74-42.27c-4.35-13.38,0.37-27.93,11.77-36.19l35.94-26.12
			c0.49-0.36,1.96-1.43,1.21-3.74c-0.75-2.32-2.58-2.32-3.18-2.32h-44.44c-14.06,0-26.44-8.99-30.78-22.35l-13.72-42.26
			c-0.19-0.58-0.76-2.31-3.2-2.31c-2.42,0-2.99,1.75-3.18,2.32l-13.74,42.25c-4.34,13.37-16.72,22.36-30.77,22.36H507.87z"/>
		<path class="st5" d="M984.18,395.9c-6.62,0-13.24-2.1-19.02-6.3l-35.95-26.12c-1.18-0.85-2.77-0.85-3.94,0l-35.96,26.12
			c-11.54,8.4-26.46,8.39-38.02,0.01c-11.56-8.39-16.18-22.59-11.77-36.18l13.75-42.27c0.44-1.39-0.05-2.89-1.21-3.74l-35.96-26.12
			c-11.56-8.4-16.17-22.6-11.75-36.19c4.41-13.58,16.49-22.35,30.77-22.35h44.44c1.46,0,2.74-0.93,3.2-2.32l13.72-42.25
			c4.41-13.59,16.49-22.36,30.77-22.36c14.29,0,26.37,8.77,30.78,22.35c0,0.01,13.74,42.27,13.74,42.27
			c0.45,1.38,1.73,2.31,3.18,2.31h44.44c14.28,0,26.36,8.78,30.78,22.37c4.41,13.58-0.2,27.78-11.76,36.17l-35.95,26.12
			c-1.17,0.85-1.66,2.36-1.21,3.74l13.73,42.26c4.42,13.58-0.19,27.78-11.74,36.18C997.43,393.8,990.81,395.9,984.18,395.9z
			 M927.24,333.81c6.66,0,13.33,2.07,19.02,6.2l35.95,26.12c0.5,0.36,1.97,1.43,3.94,0c1.96-1.43,1.39-3.17,1.21-3.74l-13.73-42.27
			c-4.35-13.38,0.37-27.92,11.75-36.18l35.95-26.12c0.49-0.36,1.96-1.43,1.21-3.74c-0.75-2.32-2.58-2.32-3.18-2.32h-44.44
			c-14.05,0-26.43-8.99-30.77-22.35l-13.74-42.26c-0.19-0.57-0.76-2.32-3.2-2.32c-2.43,0-2.99,1.75-3.18,2.32l-13.72,42.25
			c-4.34,13.37-16.72,22.36-30.78,22.36h-44.44c-0.6,0-2.42,0-3.18,2.31c-0.75,2.32,0.74,3.39,1.22,3.75l35.95,26.12
			c11.38,8.26,16.11,22.8,11.75,36.18l-13.74,42.26c-0.18,0.57-0.75,2.31,1.22,3.75c1.97,1.45,3.46,0.36,3.92,0l35.97-26.12
			C913.91,335.88,920.58,333.81,927.24,333.81z"/>
		<path class="st5" d="M864.29,854.38H808.8c-8.01,0-14.51-6.49-14.51-14.51c0-8.01,6.49-14.51,14.51-14.51h55.49
			c14.11,0,25.59-11.48,25.59-25.59c0-14.12-11.48-25.59-25.59-25.59H808.8c-8.01,0-14.51-6.49-14.51-14.51
			c0-8.01,6.49-14.51,14.51-14.51h55.49c30.11,0,54.6,24.5,54.6,54.61C918.89,829.88,894.4,854.38,864.29,854.38z"/>
		<path class="st5" d="M864.29,934.57H808.8c-8.01,0-14.51-6.49-14.51-14.51c0-8.01,6.49-14.51,14.51-14.51h55.49
			c14.11,0,25.59-11.48,25.59-25.59c0-14.12-11.48-25.6-25.59-25.6H808.8c-8.01,0-14.51-6.49-14.51-14.51
			c0-8.01,6.49-14.51,14.51-14.51h55.49c30.11,0,54.6,24.5,54.6,54.61C918.89,910.08,894.4,934.57,864.29,934.57z"/>
		<path class="st5" d="M864.29,1014.78H465.34c-8.01,0-14.51-6.49-14.51-14.51V679.48c0-6.84,4.77-12.75,11.46-14.18l35.32-7.59
			c39.1-8.39,70.65-35.82,84.4-73.37l33.94-92.69c8.58-23.4,31.07-39.13,55.99-39.13c19.53,0,37.23,9.12,48.56,25.03
			c11.33,15.92,14.18,35.63,7.8,54.09l-35.59,102.84c-2.46,7.12-1.37,14.72,2.99,20.85c4.38,6.13,11.2,9.65,18.72,9.65h149.86
			c30.11,0,54.6,24.5,54.6,54.61c0,30.11-24.49,54.6-54.6,54.6H808.8c-8.01,0-14.51-6.49-14.51-14.51c0-8.01,6.49-14.51,14.51-14.51
			h55.49c14.11,0,25.59-11.48,25.59-25.59c0-14.12-11.48-25.6-25.59-25.6H714.43c-17.03,0-32.47-7.96-42.35-21.83
			c-9.74-13.67-12.27-31.29-6.79-47.16l35.58-102.83c3.28-9.48,1.83-19.61-4-27.78c-5.81-8.17-14.9-12.85-24.93-12.85
			c-12.79,0-24.35,8.07-28.75,20.09l-33.94,92.69c-17.19,46.96-56.65,81.26-105.54,91.76l-23.87,5.13v294.56h384.45
			c14.11,0,25.59-11.48,25.59-25.6c0-14.12-11.48-25.6-25.59-25.6H808.8c-8.01,0-14.51-6.49-14.51-14.51
			c0-8.01,6.49-14.51,14.51-14.51h55.49c30.11,0,54.6,24.5,54.6,54.61C918.89,990.28,894.4,1014.78,864.29,1014.78z"/>
		<path class="st5" d="M465.34,1044.18H275.83c-8.01,0-14.51-6.49-14.51-14.51V643.43c0-8.01,6.49-14.51,14.51-14.51h189.51
			c8.01,0,14.51,6.49,14.51,14.51v386.24C479.84,1037.68,473.35,1044.18,465.34,1044.18z M290.33,1015.16h160.5V657.94h-160.5
			V1015.16z"/>
		<path class="st5" d="M370.58,778.34c-24.8,0-44.97-20.17-44.97-44.97c0-24.8,20.17-44.97,44.97-44.97
			c24.8,0,44.97,20.17,44.97,44.97C415.55,758.17,395.38,778.34,370.58,778.34z M370.58,717.41c-8.79,0-15.96,7.16-15.96,15.96
			c0,8.8,7.16,15.96,15.96,15.96s15.96-7.16,15.96-15.96C386.54,724.57,379.38,717.41,370.58,717.41z"/>
	</g>
</g>
</svg>
