<?xml version="1.0" encoding="utf-8"?>
<!-- Generator: Adobe Illustrator 25.1.0, SVG Export Plug-In . SVG Version: 6.00 Build 0)  -->
<svg version="1.1" xmlns="http://www.w3.org/2000/svg" xmlns:xlink="http://www.w3.org/1999/xlink" x="0px" y="0px"
	 viewBox="0 0 1200 1200" style="enable-background:new 0 0 1200 1200;" xml:space="preserve">
<style type="text/css">
	.st0{display:none;opacity:0.05;fill:url(#);}
	.st1{display:none;opacity:0.16;fill:url(#);}
	.st2{display:none;opacity:0.1;fill:url(#);}
	.st3{display:none;opacity:0.13;fill:url(#);}
	.st4{display:none;opacity:0.27;fill:url(#);}
	.st5{fill:#1D93D1;}
</style>
<g id="Home_Screen">
	<g id="Footer">
		<g id="Legal">
		</g>
	</g>
	<g id="Services_1_">
		<g id="Background_1_">
			<g id="Patterns">
			</g>
		</g>
		<g id="_x5B_YOUR_TEXT_HERE_x5D_">
		</g>
	</g>
	<g id="Products">
		<g id="_x5B_YOUR_HEADLINE_HERE_x5D_">
		</g>
	</g>
	<g id="Marquee">
		<g id="Background">
			<g id="Patterns_1_">
			</g>
		</g>
		<g id="_x5B_YOUR_COPY_HERE_x5D_">
		</g>
	</g>
	<g id="Header">
	</g>
	<g>
		<path class="st5" d="M229.53,695.83c-1.36,0-2.73-0.17-4.1-0.53L96.83,661.23c-4.1-1.08-7.61-3.76-9.73-7.45
			c-2.12-3.68-2.69-8.05-1.57-12.14l80.41-295.17c2.3-8.48,11.06-13.49,19.5-11.21l128.24,34.37c4.1,1.1,7.58,3.77,9.7,7.45
			c2.1,3.68,2.66,8.03,1.56,12.12L244.9,684.06C242.98,691.16,236.55,695.83,229.53,695.83z M120.51,634.53l97.77,25.89l71.7-264.14
			l-97.46-26.13L120.51,634.53z"/>
		<path class="st5" d="M287.29,678.51c-10.51,0-21.1-1.61-31.41-4.88l-23.35-7.38c-8.14-2.58-12.81-11.12-10.57-19.37l63.35-233.29
			c1.11-4.1,3.81-7.58,7.5-9.69c3.7-2.09,8.06-2.66,12.15-1.49l34.71,9.65c19.13,5.29,39.28,5.04,58.28-0.76l83.34-25.49
			c35.69-10.93,74.97-2.02,102.45,23.26l108.78,99.93c16.7,15.33,21.53,39.45,12.02,60.03c-6.29,13.64-18.17,23.87-32.59,28.08
			c-14.43,4.21-29.94,1.97-42.56-6.11l-63.29-40.5c-16.95-10.83-38.73-10.69-55.5,0.46L344.46,661.19
			C327.23,672.62,307.38,678.51,287.29,678.51z M256.73,640.46l8.77,2.78c20.82,6.56,43.16,3.45,61.33-8.63l166.13-110.24
			c27.29-18.11,62.74-18.41,90.32-0.73l63.29,40.5c4.96,3.17,10.77,4,16.44,2.37c5.65-1.66,10.12-5.51,12.59-10.86
			c3.68-7.93,1.81-17.25-4.64-23.16l-108.78-99.94c-19.19-17.66-46.6-23.87-71.57-16.25l-83.34,25.49
			c-24.78,7.61-51.1,7.95-76.13,0.98l-19.27-5.36L256.73,640.46z"/>
		<path class="st5" d="M880.29,695.01c-6,0-11.74-3.4-14.45-9.19c-3.74-7.97-0.3-17.46,7.68-21.18l63.9-29.9l-76.58-190.1
			l-46.62,6.87c-20.18,3-40.98,0.87-60.15-6.1l-123.13-44.83c-9.36-3.41-19.63-3.24-28.89,0.47l-46.87,18.86
			c-8.21,3.26-17.47-0.67-20.73-8.83c-3.29-8.17,0.66-17.46,8.83-20.74l46.89-18.87c16.56-6.66,34.91-6.97,51.69-0.86l123.11,44.83
			c14.21,5.17,29.6,6.75,44.6,4.53l59.05-8.72c7.3-1.18,14.36,2.97,17.11,9.81l86.9,215.75c3.16,7.85-0.36,16.8-8.03,20.39
			l-77.57,36.29C884.85,694.52,882.55,695.01,880.29,695.01z"/>
		<path class="st5" d="M859.84,763.45c-13.72,0-27.23-6.41-35.74-18.44l-28.84-40.72c-13.92-19.69-9.25-47.03,10.42-60.93
			l10.19-7.22c19.73-13.9,47.04-9.23,60.93,10.44l28.84,40.72c13.92,19.69,9.24,47.01-10.44,60.93l-10.17,7.21
			C877.38,760.86,868.56,763.45,859.84,763.45z M841.11,659.99c-2.37,0-4.75,0.7-6.83,2.17l-10.19,7.22
			c-5.33,3.76-6.59,11.16-2.81,16.49l28.84,40.72c3.77,5.33,11.17,6.59,16.48,2.84l10.19-7.22c5.33-3.77,6.6-11.17,2.83-16.5
			l-28.84-40.72C848.47,661.72,844.83,659.99,841.11,659.99z"/>
		<path class="st5" d="M813.18,819.14c-2.54,0-5.09-0.21-7.65-0.65c-11.81-2.03-22.1-8.52-29.03-18.28l-72.52-102.43
			c-6.91-9.78-9.61-21.64-7.6-33.45c2.02-11.79,8.51-22.11,18.27-29.03l10.62-7.51c9.76-6.93,21.69-9.61,33.44-7.6
			c11.81,2.03,22.1,8.52,29.03,18.28l72.51,102.43c6.91,9.78,9.61,21.66,7.6,33.45c-2.03,11.81-8.52,22.1-18.28,29.03l-10.6,7.5
			C831.33,816.32,822.38,819.14,813.18,819.14z M751.15,651.45c-2.59,0-5.19,0.77-7.45,2.38l-10.62,7.51
			c-2.82,1.99-4.68,4.97-5.27,8.37c-0.57,3.41,0.2,6.84,2.21,9.65l72.51,102.43c1.99,2.83,4.97,4.69,8.38,5.28
			c3.4,0.59,6.82-0.19,9.64-2.18l10.6-7.51c2.83-2.01,4.69-4.98,5.28-8.39c0.59-3.4-0.19-6.82-2.19-9.64l-72.52-102.43
			C759.21,653.35,755.21,651.45,751.15,651.45z"/>
		<path class="st5" d="M740.04,838.28c-2.54,0-5.09-0.21-7.65-0.65c-11.81-2.02-22.12-8.52-29.03-18.29l-53.87-76.09
			c-6.91-9.79-9.61-21.66-7.6-33.46c2.02-11.79,8.5-22.1,18.28-29.02l10.61-7.51c9.75-6.91,21.64-9.63,33.44-7.6
			c11.79,2.02,22.11,8.51,29.03,18.27l53.89,76.11c14.27,20.19,9.48,48.22-10.7,62.48l-10.61,7.51
			C758.19,835.46,749.23,838.28,740.04,838.28z M696.66,696.9c-2.65,0-5.24,0.82-7.45,2.39l-10.62,7.51
			c-2.81,1.99-4.68,4.96-5.27,8.35c-0.57,3.41,0.2,6.85,2.2,9.68l53.87,76.09c1.99,2.83,4.97,4.71,8.37,5.29
			c3.44,0.58,6.85-0.21,9.65-2.21c0.01,0,10.62-7.51,10.62-7.51c2.82-1.99,4.68-4.96,5.27-8.37c0.58-3.41-0.2-6.84-2.19-9.66
			l-53.89-76.1c-1.99-2.83-4.97-4.69-8.37-5.28C698.12,696.96,697.39,696.9,696.66,696.9z"/>
		<path class="st5" d="M676.11,874.52c-14.42,0-28.63-6.75-37.58-19.39l-44.32-62.59c-14.64-20.7-9.73-49.45,10.96-64.1l11.05-7.82
			c10.01-7.09,22.22-9.88,34.31-7.8c12.1,2.07,22.69,8.73,29.79,18.77l44.31,62.58c7.1,10.02,9.86,22.22,7.8,34.32
			c-2.08,12.11-8.74,22.68-18.77,29.78l-11.02,7.81C694.58,871.78,685.3,874.52,676.11,874.52z M642.74,744.05
			c-2.9,0-5.72,0.9-8.12,2.59l-11.05,7.82c-6.34,4.5-7.85,13.31-3.35,19.67l44.31,62.58c2.17,3.08,5.42,5.12,9.13,5.75
			c3.72,0.62,7.46-0.22,10.52-2.38l11.03-7.82c3.07-2.18,5.12-5.43,5.75-9.14c0.63-3.71-0.21-7.45-2.38-10.51l-44.32-62.59
			c-2.18-3.09-5.42-5.13-9.13-5.77C644.34,744.11,643.54,744.05,642.74,744.05z"/>
		<path class="st5" d="M526.85,852.98c-12.81,0-25.28-6.11-33.03-17.17c-6.6-9.45-8.86-21.27-6.19-32.45
			c2.65-11.18,9.99-20.72,20.1-26.16l44.87-24.12c7.76-4.19,17.41-1.28,21.58,6.49c4.17,7.75,1.27,17.42-6.49,21.58l-44.86,24.12
			c-2.89,1.56-3.87,4.1-4.2,5.47c-0.32,1.38-0.6,4.1,1.3,6.8c2.32,3.3,6.7,4.51,10.37,2.81l80.7-36.82
			c8.02-3.65,17.47-0.11,21.12,7.9c3.65,8.01,0.11,17.46-7.9,21.12l-80.68,36.81C538.17,851.8,532.47,852.98,526.85,852.98z"/>
		<path class="st5" d="M462.83,828.99c-15.2,0-30.12-7.3-39.14-20.41c-7.45-10.81-10.08-24.37-7.2-37.17
			c2.88-12.81,11.05-23.95,22.39-30.54l130.19-75.59c7.63-4.42,17.36-1.83,21.79,5.78c4.42,7.62,1.83,17.37-5.78,21.79L454.9,768.45
			c-3.76,2.18-6.35,5.7-7.3,9.94c-0.95,4.23-0.12,8.54,2.34,12.12c4.3,6.24,12.63,8.42,19.44,5.12l44.27-21.59
			c7.95-3.84,17.46-0.56,21.32,7.35c3.85,7.92,0.56,17.46-7.35,21.32l-44.27,21.58C476.8,827.46,469.78,828.99,462.83,828.99z"/>
		<path class="st5" d="M416.78,783.36c-4.41,0-8.85-0.6-13.23-1.81c-12.94-3.57-23.62-12.02-30.09-23.77
			c-12.74-23.11-5.09-52.03,17.42-65.84l127.75-78.37c7.48-4.59,17.31-2.25,21.92,5.26c4.61,7.5,2.25,17.31-5.26,21.92
			l-127.75,78.37c-7.96,4.88-10.67,15.12-6.16,23.29c2.29,4.17,6.08,7.15,10.65,8.42c4.53,1.24,9.33,0.63,13.45-1.76l102.08-59.68
			c7.57-4.46,17.35-1.89,21.81,5.72c4.45,7.6,1.88,17.36-5.71,21.81l-102.08,59.68C433.9,781.07,425.4,783.36,416.78,783.36z"/>
		<path class="st5" d="M365.62,735.88c-4.59,0-9.23-0.56-13.82-1.68c-15.33-3.74-28.16-13.3-36.11-26.93
			c-15.4-26.38-7.53-60.26,17.91-77.15l89.74-59.55c7.36-4.83,17.22-2.85,22.11,4.47c4.86,7.34,2.86,17.23-4.47,22.11l-89.74,59.55
			c-11.38,7.55-14.91,22.7-8.02,34.48c3.56,6.09,9.3,10.37,16.15,12.04c6.85,1.67,13.91,0.51,19.89-3.24l50.06-31.61
			c7.42-4.68,17.28-2.49,21.98,4.97c4.71,7.44,2.48,17.29-4.97,21.98l-50.06,31.6C386.92,732.84,376.37,735.88,365.62,735.88z"/>
		<path class="st5" d="M972.16,691.92c-6.19,0-12.05-3.62-14.63-9.63l-14.31-33.2l-87.05-216.12c-0.14-0.34-13.03-34.61-13.03-34.61
			c-3.07-8.17,0.98-17.27,9.1-20.46l131.02-51.32c3.95-1.57,8.36-1.47,12.24,0.26c3.89,1.71,6.93,4.89,8.46,8.85l110,285.73
			c1.52,3.95,1.41,8.33-0.31,12.2c-1.72,3.86-4.91,6.89-8.85,8.41l-126.92,48.82C976.01,691.58,974.07,691.92,972.16,691.92z
			 M885.81,421.25l94.92,234.36l97.75-37.6l-98.51-255.89l-101.45,39.74L885.81,421.25z"/>
	</g>
</g>
<g id="Capa_15">
</g>
</svg>
