<svg xmlns="http://www.w3.org/2000/svg" viewBox="0 0 300 118"><defs><style>.cls-1{fill:#010304;}.cls-2{fill:#1d93d1;}</style></defs><g id="Capa_4" data-name="Capa 4"><path class="cls-1" d="M9.59,90.6v17.22a13.66,13.66,0,0,1-2.74-8.21V97.47A17.46,17.46,0,0,1,9.59,90.6Z"/><path class="cls-2" d="M293.38,44.68v1.07a34.5,34.5,0,0,1-34.5,34.5H235.71c-.86,0-1.73.07-2.6.07H30.56c-9,0-16.89,4.15-21,10.28a17.46,17.46,0,0,0-2.74,6.87,16.16,16.16,0,0,0-.23,2.71v-67a19.76,19.76,0,0,1,3-10.36c4.58-7.5,13.93-12.64,24.75-12.64H258.88A34.5,34.5,0,0,1,293.38,44.68Z"/></g></svg>