<svg xmlns="http://www.w3.org/2000/svg" viewBox="0 0 927 322"><defs><style>.cls-1{fill:#010304;}.cls-2{fill:#103f74;}</style></defs><g id="Home_Screen" data-name="Home Screen"><g id="Header-3" data-name="Header"><path class="cls-1" d="M49.83,256.16V308a40.93,40.93,0,0,1-8.24-24.7v-6.44A52.41,52.41,0,0,1,49.83,256.16Z"/><path class="cls-2" d="M903.57,118v3.22A103.79,103.79,0,0,1,799.78,225H730.1c-2.58.15-5.2.21-7.82.21H112.92c-27.17,0-50.84,12.48-63.09,30.93a52.41,52.41,0,0,0-8.24,20.66A48.84,48.84,0,0,0,40.9,285V83.41a59.42,59.42,0,0,1,8.93-31.17c13.75-22.56,41.91-38,74.46-38H799.78A103.79,103.79,0,0,1,903.57,118Z"/><path class="cls-1" d="M49.83,256.16V308a40.93,40.93,0,0,1-8.24-24.7v-6.44A52.41,52.41,0,0,1,49.83,256.16Z"/></g></g></svg>