<svg xmlns="http://www.w3.org/2000/svg" xmlns:xlink="http://www.w3.org/1999/xlink" width="1200" height="1200" viewBox="0 0 1200 1200">
  <defs>
    <clipPath id="clip-Mesa_de_trabajo_10">
      <rect width="1200" height="1200"/>
    </clipPath>
  </defs>
  <g id="Mesa_de_trabajo_10" data-name="Mesa de trabajo – 10" clip-path="url(#clip-Mesa_de_trabajo_10)">
    <rect width="1200" height="1200" fill="#fff"/>
    <g id="Grupo_257" data-name="Grupo 257" transform="translate(-316 -401.659)">
      <g id="CHECK" transform="translate(456 569)">
        <path id="Trazado_95" data-name="Trazado 95" d="M405.444,583.061C425,559.377,450.664,555.442,480.1,555.6c180.438.938,360.876.471,541.32.471h42.061c-35.119,34.832-63.681,64.665-94.26,92.276-6.453,5.826-20.3,4.685-30.755,4.7-143.649.273-287.3.188-433.437.188v587.23H1093c0-72.4.893-143.335-.5-214.226-.463-23.338,5.3-40.515,22.894-56.577,23.655-21.588,44.487-46.264,72.313-75.733,1.266,17.584,2.329,25.582,2.342,33.58.111,115.432-.744,230.877.607,346.3.379,32.041-10.693,53.7-39.283,66.99H405.444Z" transform="translate(-405.444 -475.487)" fill="#103f74"/>
        <path id="Trazado_96" data-name="Trazado 96" d="M664.891,986.57c51.233-50.869,100.967-99.977,150.4-149.375,87.815-87.776,175.154-176.022,263.282-263.478,44.109-43.777,103.231-39.523,128.4,7.913,17.159,32.347,10.518,63.578-21.822,96.028q-122.3,122.75-245.157,244.956Q834.576,1027.893,729.12,1133.147c-45.017,44.809-83.358,44.893-128.473.178-47.548-47.119-95.351-93.993-141.887-142.09-25.889-26.756-30.409-61.008-15.24-89.095,15.305-28.326,46.744-45.341,79.143-36.365,18.633,5.168,36.5,18.033,51.221,31.3C604.966,925.093,633.751,955.652,664.891,986.57Z" transform="translate(-243.007 -543.318)" fill="#ea0934"/>
      </g>
    </g>
  </g>
</svg>
